<mxfile host="app.diagrams.net" modified="2024-04-12T20:03:09.475Z" agent="Mozilla/5.0 (Macintosh; Intel Mac OS X 10.15; rv:124.0) Gecko/20100101 Firefox/124.0" etag="5zC2HnZCscF84VHcLcOc" version="24.2.3" type="github">
  <diagram name="Page-1" id="sPdX6A_dnVgKp7yQ9Ja6">
    <mxGraphModel dx="1194" dy="718" grid="1" gridSize="10" guides="1" tooltips="1" connect="1" arrows="1" fold="1" page="1" pageScale="1" pageWidth="850" pageHeight="1100" background="#FFFFFF" math="0" shadow="0">
      <root>
        <mxCell id="0" />
        <mxCell id="1" parent="0" />
        <mxCell id="SQpLpG3qjown2OBQIWGg-7" value="" style="sketch=0;pointerEvents=1;shadow=0;dashed=0;html=1;strokeColor=none;fillColor=#505050;labelPosition=center;verticalLabelPosition=bottom;verticalAlign=top;outlineConnect=0;align=center;shape=mxgraph.office.servers.certificate_authority;" parent="1" vertex="1">
          <mxGeometry x="106.8" y="55" width="32" height="38" as="geometry" />
        </mxCell>
        <mxCell id="SQpLpG3qjown2OBQIWGg-8" value="Certificate&#xa;manager" style="sketch=0;outlineConnect=0;fontColor=#232F3E;gradientColor=none;strokeColor=#232F3E;fillColor=#ffffff;dashed=0;verticalLabelPosition=bottom;verticalAlign=top;align=center;html=1;fontSize=12;fontStyle=0;aspect=fixed;shape=mxgraph.aws4.resourceIcon;resIcon=mxgraph.aws4.certificate_manager;" parent="1" vertex="1">
          <mxGeometry x="368" y="30" width="73" height="73" as="geometry" />
        </mxCell>
        <mxCell id="_npxwFRHUUskg1cep9gv-30" value="" style="group" vertex="1" connectable="0" parent="1">
          <mxGeometry x="270" y="161.5" width="278" height="212.5" as="geometry" />
        </mxCell>
        <mxCell id="SQpLpG3qjown2OBQIWGg-3" value="" style="image;aspect=fixed;html=1;points=[];align=center;fontSize=12;image=img/lib/azure2/security/Key_Vaults.svg;" parent="_npxwFRHUUskg1cep9gv-30" vertex="1">
          <mxGeometry x="108.71508379888269" width="50.81505439576595" height="50.81505439576595" as="geometry" />
        </mxCell>
        <mxCell id="_npxwFRHUUskg1cep9gv-5" value="" style="image;aspect=fixed;html=1;points=[];align=center;fontSize=12;image=img/lib/azure2/security/Key_Vaults.svg;shadow=1;" vertex="1" parent="_npxwFRHUUskg1cep9gv-30">
          <mxGeometry y="160.04990925589837" width="50.81505439576595" height="50.81505439576595" as="geometry" />
        </mxCell>
        <mxCell id="_npxwFRHUUskg1cep9gv-6" value="" style="image;aspect=fixed;html=1;points=[];align=center;fontSize=12;image=img/lib/azure2/security/Key_Vaults.svg;" vertex="1" parent="_npxwFRHUUskg1cep9gv-30">
          <mxGeometry x="69.88826815642457" y="160.04990925589837" width="50.81505439576595" height="50.81505439576595" as="geometry" />
        </mxCell>
        <mxCell id="_npxwFRHUUskg1cep9gv-7" value="" style="image;aspect=fixed;html=1;points=[];align=center;fontSize=12;image=img/lib/azure2/security/Key_Vaults.svg;" vertex="1" parent="_npxwFRHUUskg1cep9gv-30">
          <mxGeometry x="147.54189944134077" y="160.04990925589837" width="50.81505439576595" height="50.81505439576595" as="geometry" />
        </mxCell>
        <mxCell id="_npxwFRHUUskg1cep9gv-8" value="" style="image;aspect=fixed;html=1;points=[];align=center;fontSize=12;image=img/lib/azure2/security/Key_Vaults.svg;" vertex="1" parent="_npxwFRHUUskg1cep9gv-30">
          <mxGeometry x="225.19553072625698" y="160.04990925589837" width="50.81505439576595" height="50.81505439576595" as="geometry" />
        </mxCell>
        <mxCell id="_npxwFRHUUskg1cep9gv-17" style="edgeStyle=orthogonalEdgeStyle;rounded=0;orthogonalLoop=1;jettySize=auto;html=1;entryX=0.515;entryY=0.007;entryDx=0;entryDy=0;entryPerimeter=0;curved=1;strokeWidth=3;strokeColor=#FF99FF;flowAnimation=1;shadow=1;" edge="1" parent="_npxwFRHUUskg1cep9gv-30" source="SQpLpG3qjown2OBQIWGg-3" target="_npxwFRHUUskg1cep9gv-5">
          <mxGeometry relative="1" as="geometry" />
        </mxCell>
        <mxCell id="_npxwFRHUUskg1cep9gv-19" style="edgeStyle=orthogonalEdgeStyle;rounded=0;orthogonalLoop=1;jettySize=auto;html=1;entryX=0.529;entryY=0.022;entryDx=0;entryDy=0;entryPerimeter=0;curved=1;strokeWidth=3;strokeColor=#FF8000;flowAnimation=1;shadow=1;" edge="1" parent="_npxwFRHUUskg1cep9gv-30" source="SQpLpG3qjown2OBQIWGg-3" target="_npxwFRHUUskg1cep9gv-8">
          <mxGeometry relative="1" as="geometry" />
        </mxCell>
        <mxCell id="_npxwFRHUUskg1cep9gv-28" style="edgeStyle=orthogonalEdgeStyle;rounded=0;orthogonalLoop=1;jettySize=auto;html=1;entryX=0.485;entryY=0.051;entryDx=0;entryDy=0;entryPerimeter=0;strokeWidth=3;strokeColor=#663300;flowAnimation=1;shadow=1;" edge="1" parent="_npxwFRHUUskg1cep9gv-30" source="SQpLpG3qjown2OBQIWGg-3" target="_npxwFRHUUskg1cep9gv-7">
          <mxGeometry relative="1" as="geometry">
            <Array as="points">
              <mxPoint x="173.1675977653631" y="28.53901996370236" />
            </Array>
          </mxGeometry>
        </mxCell>
        <mxCell id="_npxwFRHUUskg1cep9gv-29" style="edgeStyle=orthogonalEdgeStyle;rounded=0;orthogonalLoop=1;jettySize=auto;html=1;entryX=0.5;entryY=0.051;entryDx=0;entryDy=0;entryPerimeter=0;strokeWidth=3;strokeColor=#004C99;flowAnimation=1;shadow=1;" edge="1" parent="_npxwFRHUUskg1cep9gv-30" source="SQpLpG3qjown2OBQIWGg-3" target="_npxwFRHUUskg1cep9gv-6">
          <mxGeometry relative="1" as="geometry">
            <Array as="points">
              <mxPoint x="96.29050279329608" y="29.31034482758621" />
            </Array>
          </mxGeometry>
        </mxCell>
        <mxCell id="_npxwFRHUUskg1cep9gv-54" value="" style="image;aspect=fixed;html=1;points=[];align=center;fontSize=12;image=img/lib/azure2/app_services/App_Service_Certificates.svg;" vertex="1" parent="_npxwFRHUUskg1cep9gv-30">
          <mxGeometry x="238" y="88.5" width="21.93" height="20" as="geometry" />
        </mxCell>
        <mxCell id="_npxwFRHUUskg1cep9gv-53" value="" style="image;aspect=fixed;html=1;points=[];align=center;fontSize=12;image=img/lib/azure2/app_services/App_Service_Certificates.svg;" vertex="1" parent="_npxwFRHUUskg1cep9gv-30">
          <mxGeometry x="159.52999999999997" y="88.5" width="21.93" height="20" as="geometry" />
        </mxCell>
        <mxCell id="_npxwFRHUUskg1cep9gv-52" value="" style="image;aspect=fixed;html=1;points=[];align=center;fontSize=12;image=img/lib/azure2/app_services/App_Service_Certificates.svg;" vertex="1" parent="_npxwFRHUUskg1cep9gv-30">
          <mxGeometry x="14.439999999999998" y="88.5" width="21.93" height="20" as="geometry" />
        </mxCell>
        <mxCell id="_npxwFRHUUskg1cep9gv-48" value="" style="image;aspect=fixed;html=1;points=[];align=center;fontSize=12;image=img/lib/azure2/app_services/App_Service_Certificates.svg;" vertex="1" parent="_npxwFRHUUskg1cep9gv-30">
          <mxGeometry x="86.79000000000002" y="88.5" width="21.93" height="20" as="geometry" />
        </mxCell>
        <mxCell id="_npxwFRHUUskg1cep9gv-35" value="" style="group" vertex="1" connectable="0" parent="1">
          <mxGeometry x="200" y="30" width="100" height="90" as="geometry" />
        </mxCell>
        <mxCell id="_npxwFRHUUskg1cep9gv-33" value="" style="image;aspect=fixed;html=1;points=[];align=center;fontSize=12;image=img/lib/azure2/compute/VM_Scale_Sets.svg;" vertex="1" parent="_npxwFRHUUskg1cep9gv-35">
          <mxGeometry width="90" height="90" as="geometry" />
        </mxCell>
        <mxCell id="_npxwFRHUUskg1cep9gv-32" value="" style="group" vertex="1" connectable="0" parent="_npxwFRHUUskg1cep9gv-35">
          <mxGeometry x="3.821656050955414" y="57.32484076433121" width="31.847133757961785" height="28.662420382165607" as="geometry" />
        </mxCell>
        <mxCell id="SQpLpG3qjown2OBQIWGg-2" value="" style="image;sketch=0;aspect=fixed;html=1;points=[];align=center;fontSize=12;image=img/lib/mscae/Azure_DevOps.svg;" parent="_npxwFRHUUskg1cep9gv-32" vertex="1">
          <mxGeometry width="28.662420382165607" height="28.662420382165607" as="geometry" />
        </mxCell>
        <mxCell id="SQpLpG3qjown2OBQIWGg-4" value="" style="outlineConnect=0;dashed=0;verticalLabelPosition=bottom;verticalAlign=top;align=center;html=1;shape=mxgraph.aws3.certificate_manager;fillColor=#759C3E;gradientColor=none;" parent="_npxwFRHUUskg1cep9gv-32" vertex="1">
          <mxGeometry x="9.872611464968154" y="10.031847133757962" width="12.101910828025476" height="8.598726114649683" as="geometry" />
        </mxCell>
        <mxCell id="_npxwFRHUUskg1cep9gv-100" value="" style="group;strokeColor=default;rotation=90;" vertex="1" connectable="0" parent="1">
          <mxGeometry x="10" y="253" width="140" height="87" as="geometry" />
        </mxCell>
        <mxCell id="_npxwFRHUUskg1cep9gv-101" value="" style="verticalLabelPosition=bottom;verticalAlign=top;html=1;shape=mxgraph.basic.rounded_frame;dx=3;whiteSpace=wrap;rotation=180;strokeWidth=3;strokeColor=#003300;" vertex="1" parent="_npxwFRHUUskg1cep9gv-100">
          <mxGeometry x="27" y="-26" width="87" height="140" as="geometry" />
        </mxCell>
        <mxCell id="_npxwFRHUUskg1cep9gv-102" value="" style="image;aspect=fixed;html=1;points=[];align=center;fontSize=12;image=img/lib/azure2/app_services/App_Services.svg;rotation=0;" vertex="1" parent="_npxwFRHUUskg1cep9gv-100">
          <mxGeometry x="40" y="-16" width="28" height="28" as="geometry" />
        </mxCell>
        <mxCell id="_npxwFRHUUskg1cep9gv-103" value="" style="image;sketch=0;aspect=fixed;html=1;points=[];align=center;fontSize=12;image=img/lib/mscae/Application_Gateway.svg;rotation=0;" vertex="1" parent="_npxwFRHUUskg1cep9gv-100">
          <mxGeometry x="38" y="26" width="30" height="30" as="geometry" />
        </mxCell>
        <mxCell id="_npxwFRHUUskg1cep9gv-104" value="" style="image;aspect=fixed;html=1;points=[];align=center;fontSize=12;image=img/lib/azure2/networking/Front_Doors.svg;rotation=0;" vertex="1" parent="_npxwFRHUUskg1cep9gv-100">
          <mxGeometry x="36" y="71" width="35.04" height="30.91" as="geometry" />
        </mxCell>
        <mxCell id="_npxwFRHUUskg1cep9gv-105" value="" style="image;aspect=fixed;html=1;points=[];align=center;fontSize=12;image=img/lib/azure2/app_services/App_Service_Certificates.svg;rotation=0;" vertex="1" parent="_npxwFRHUUskg1cep9gv-100">
          <mxGeometry x="77" y="-15" width="28.52" height="26" as="geometry" />
        </mxCell>
        <mxCell id="_npxwFRHUUskg1cep9gv-106" value="" style="image;aspect=fixed;html=1;points=[];align=center;fontSize=12;image=img/lib/azure2/app_services/App_Service_Certificates.svg;rotation=0;" vertex="1" parent="_npxwFRHUUskg1cep9gv-100">
          <mxGeometry x="77" y="28" width="28.52" height="26" as="geometry" />
        </mxCell>
        <mxCell id="_npxwFRHUUskg1cep9gv-107" value="" style="image;aspect=fixed;html=1;points=[];align=center;fontSize=12;image=img/lib/azure2/app_services/App_Service_Certificates.svg;rotation=0;" vertex="1" parent="_npxwFRHUUskg1cep9gv-100">
          <mxGeometry x="77" y="73" width="28.52" height="26" as="geometry" />
        </mxCell>
        <mxCell id="_npxwFRHUUskg1cep9gv-109" value="" style="image;aspect=fixed;html=1;points=[];align=center;fontSize=12;image=img/lib/azure2/app_services/App_Service_Certificates.svg;" vertex="1" parent="1">
          <mxGeometry x="220" y="320" width="21.93" height="20" as="geometry" />
        </mxCell>
        <mxCell id="_npxwFRHUUskg1cep9gv-113" style="edgeStyle=orthogonalEdgeStyle;rounded=0;orthogonalLoop=1;jettySize=auto;html=1;entryX=1;entryY=0.121;entryDx=0;entryDy=0;entryPerimeter=0;strokeWidth=2;strokeColor=#330066;flowAnimation=1;" edge="1" parent="1" source="_npxwFRHUUskg1cep9gv-8" target="_npxwFRHUUskg1cep9gv-119">
          <mxGeometry relative="1" as="geometry">
            <mxPoint x="646.0600000000002" y="346.97" as="targetPoint" />
          </mxGeometry>
        </mxCell>
        <mxCell id="_npxwFRHUUskg1cep9gv-114" value="" style="image;aspect=fixed;html=1;points=[];align=center;fontSize=12;image=img/lib/azure2/app_services/App_Service_Certificates.svg;" vertex="1" parent="1">
          <mxGeometry x="585" y="320" width="21.93" height="20" as="geometry" />
        </mxCell>
        <mxCell id="_npxwFRHUUskg1cep9gv-116" value="" style="whiteSpace=wrap;html=1;aspect=fixed;rounded=1;arcSize=9;strokeWidth=3;strokeColor=#B5739D;fillColor=#FFFFFF;" vertex="1" parent="1">
          <mxGeometry x="278.5" y="470" width="261" height="261" as="geometry" />
        </mxCell>
        <mxCell id="_npxwFRHUUskg1cep9gv-117" style="edgeStyle=orthogonalEdgeStyle;rounded=0;orthogonalLoop=1;jettySize=auto;html=1;entryX=-0.069;entryY=0.143;entryDx=0;entryDy=0;entryPerimeter=0;strokeWidth=2;strokeColor=#003300;flowAnimation=1;" edge="1" parent="1" source="_npxwFRHUUskg1cep9gv-5" target="_npxwFRHUUskg1cep9gv-101">
          <mxGeometry relative="1" as="geometry" />
        </mxCell>
        <mxCell id="_npxwFRHUUskg1cep9gv-118" value="" style="group;strokeColor=default;rotation=90;" vertex="1" connectable="0" parent="1">
          <mxGeometry x="680" y="250" width="140" height="87" as="geometry" />
        </mxCell>
        <mxCell id="_npxwFRHUUskg1cep9gv-119" value="" style="verticalLabelPosition=bottom;verticalAlign=top;html=1;shape=mxgraph.basic.rounded_frame;dx=3;whiteSpace=wrap;rotation=180;strokeWidth=3;strokeColor=#003300;" vertex="1" parent="_npxwFRHUUskg1cep9gv-118">
          <mxGeometry x="27" y="-26" width="87" height="140" as="geometry" />
        </mxCell>
        <mxCell id="_npxwFRHUUskg1cep9gv-120" value="" style="image;aspect=fixed;html=1;points=[];align=center;fontSize=12;image=img/lib/azure2/app_services/App_Services.svg;rotation=0;" vertex="1" parent="_npxwFRHUUskg1cep9gv-118">
          <mxGeometry x="40" y="-16" width="28" height="28" as="geometry" />
        </mxCell>
        <mxCell id="_npxwFRHUUskg1cep9gv-121" value="" style="image;sketch=0;aspect=fixed;html=1;points=[];align=center;fontSize=12;image=img/lib/mscae/Application_Gateway.svg;rotation=0;" vertex="1" parent="_npxwFRHUUskg1cep9gv-118">
          <mxGeometry x="38" y="26" width="30" height="30" as="geometry" />
        </mxCell>
        <mxCell id="_npxwFRHUUskg1cep9gv-122" value="" style="image;aspect=fixed;html=1;points=[];align=center;fontSize=12;image=img/lib/azure2/networking/Front_Doors.svg;rotation=0;" vertex="1" parent="_npxwFRHUUskg1cep9gv-118">
          <mxGeometry x="36" y="71" width="35.04" height="30.91" as="geometry" />
        </mxCell>
        <mxCell id="_npxwFRHUUskg1cep9gv-123" value="" style="image;aspect=fixed;html=1;points=[];align=center;fontSize=12;image=img/lib/azure2/app_services/App_Service_Certificates.svg;rotation=0;" vertex="1" parent="_npxwFRHUUskg1cep9gv-118">
          <mxGeometry x="77" y="-15" width="28.52" height="26" as="geometry" />
        </mxCell>
        <mxCell id="_npxwFRHUUskg1cep9gv-124" value="" style="image;aspect=fixed;html=1;points=[];align=center;fontSize=12;image=img/lib/azure2/app_services/App_Service_Certificates.svg;rotation=0;" vertex="1" parent="_npxwFRHUUskg1cep9gv-118">
          <mxGeometry x="77" y="28" width="28.52" height="26" as="geometry" />
        </mxCell>
        <mxCell id="_npxwFRHUUskg1cep9gv-125" value="" style="image;aspect=fixed;html=1;points=[];align=center;fontSize=12;image=img/lib/azure2/app_services/App_Service_Certificates.svg;rotation=0;" vertex="1" parent="_npxwFRHUUskg1cep9gv-118">
          <mxGeometry x="77" y="73" width="28.52" height="26" as="geometry" />
        </mxCell>
        <mxCell id="_npxwFRHUUskg1cep9gv-127" value="" style="shape=image;imageAspect=0;aspect=fixed;verticalLabelPosition=bottom;verticalAlign=top;image=data:image/png,iVBORw0KGgoAAAANSUhEUgAAAoQAAAGtCAYAAACP/GUsAAAACXBIWXMAAAsTAAALEwEAmpwYAAAgAElEQVR4nOzdeXhU5d0+8HvmzJp1CAmJhCVADAFRAmpZRagKQa0JtQhWUdFaqVRZpBX6+ntxfZG3hQC2VVyKtfSFWCuhagVtgSKrgIRNgixJgEAYISQZskxm+/0xOTNnJudMEshMJpn7c11zBWaeGR6RfHOfZzsAERERERERERERERERERERERERERERERERERERERERERERERERERERERERERERERERERERERERERERERERERERERERERERERERERERERERERERERERERERERERERERERERERERERERERERERERERERERERERERERF1VKr27gARUYi1tO65gtoLIqIwwkBIRJ2ZSuHXcr8X+QdBV4DXiIg6BQZCIupsVP5f9+7d2yU9PT1Lq9VmajSaXoIgDAvw/nqHw/G13W6/YLPZisxmc1FGRsb5xtdcCl+JiIiIqJ2pAKgbHwIAzfnz5wfV1ta+YLfbD7iukd1uL7FarSvMZvNtADSNf4b456nAi2siIiKidiEGMU8INJvNt1mt1hV2u73kWkNggHBY3tDQ8EF1dfVP4BsOGQyJiIiIQkQaBDVbt25NagyB5cEKgUocDkddQ0PDB4cOHeoJdzhkMCQiIiIKMk8QXL58eVzjlHBlqIOgXDCsq6t7dePGjd3AYEhEREQUFNKpYW1VVdU0m81W2t5B0J/dbi+3WCzPANDBdyqZiCissVARUbjzTBGbzeYRCQkJvxcE4abWfkiRuQ4lFVbsPn0FJRX1KKmwKrYdmx6P/kkGpCXoMbx3bKs7bLfbv6usrPxVUlLS5wCccO9GFh9ERGGHgZCIwpVK8hAsFstTMTExK1rzAbtKLcgvvISCwxUBA2AgKbFaZGeakDMoAbmDElr1XqvVunrlypUzZ82aVQvfYEhEFFYYCIkoHPnsIK6trV1iNBpntuSNW05WI7/wIgoOVaDcYmvTThk0auTemIAJ/U2YOqQrDBp1s++x2+17vv7668mjRo06B8ABhkIiCkMMhEQUbjxhcP369V2zs7NX63S6O5t7U2FZDRb88zQ2FFUGv4dwjxzm5aRh6pDEZtva7fbTxcXFUzIyMr6BOxSKo4VERGGBgZCIwonngOm9e/f2Gzx48HqNRpMR6A3lFhsWfFaK9/d8H5oe+slKjUZeThrG9osL2M7hcFgrKyufSkxMXAPfkUIGQyJqdwyERBQuPFPEZWVl45KTk/MFQYhXalxZZ8fiTeewbOt51NudoeulgtxBCVh0Ty9kdjMGbGexWBbGxcUthu9IIUMhEbUrBkIiCgeeMPjtt9/enJGRsVkQBL1S48KyGkx852ibrxG8VgaNGqum9mt2Gvny5cuzExIS3gJDIRGFieZXRBMRBZcnDH766ac9rr/++rWBwuDa/RcxYsXhsAuDAFBvd+LB1cfx0hdnA7aLi4tbXFRUNAo8q5CIwgQDIRG1J08YnDlzZuydd975gUaj6aXU+KUvzuLB1cfDYoo4kBc3nsGkVccU+ykIgr5fv35rPv744x5wh0Le1YSI2pXQ3h0goojlOWMQgHbTpk3LoqKi7pNrWG93Ytr/ncDvt5WHtIPXoshch8+OViK7vwkmo6bJ62q1Orpv374jzWbz3/bt2xd+w51EFFF4RUpE7UF6zqDWbDbPSEpKWqrU+Bd/P4W3dlwIWefaUlZqNHY+O0jxzMIrV66sio2N/SUAG3hOIRG1E04ZE1F7EMOg5siRIyMTEhIWKTVctvV8hw2DgHsDzPS1JxVfj4mJmX7u3LnHAGjgXU/Ii3UiCilOGRNRqHnWDQLQLlu27CONRtNdruGWk9V4cPXxkHYuGA6X18KgVWN0H/mzCo1G463FxcXvHTx4sAEcISSidsARQiIKJelUseb48eOTtFrtILmGJRVWTFp1LKSdC6YFnynfRUWj0XRbsmTJMwC04CYTImoHDIREFGri6KCuR48ez8s1qLc7MfGdo6iss4e2Z0H24OrjKKmwyr7WtWvXX61cuVLcdcyjaIgopBgIiShUfEYHT5069YjBYLhBruGCz06jyFwX0s6FQmWdHdPXnpB9TRAE/f333z8XHCUkonbAQEhEoeJZOzh58uSYHj16vCDXqNxi69CbSJqz5WQ1Cg5XyL5mMpke+cMf/pAKjhISUYgxEBJRKIjBRg1Ak5eX96RWq02SazhnfUnYHzx9rZTuZCIIgv6hhx5aBPcoIXccE1HIMBASUSj47Czu1q3bM3KNCstqsHb/xZB2rD0UltUojhLGx8fnLF++nKOERBRSDIREFGw+o4ObNm0aoTQ62Nw9gDuTX3x0SnEkdOLEiePBcwmJKIQYCIkoFDyjgxkZGXfKNQg0atYZBVormZycPBHcXEJEIcRASETBJr1nsaZLly4T5Bot/+p8SDsVDvILL8k+Hx0dffu4ceNi4J02BhgKiSiIGAiJKJikR80Iy5cv7xsVFTVArqHSoc2d2a5SC8ottibPC4Kgf/XVV8eA6wiJKEQYCIko2DxnD44fP/4OuQZKwSgSFBySnybPyMjIAdcRElGIMBASUTBJp4uF1NTU++QabTxWFdJOhZP1R+QDYVxc3O1wB0JOGxNR0DEQElGwSHcXq5944omuUVFRg+UaRtJmEn9bTlTL7jbW6XSJ+fn5WeC0MRGFAAMhEQWTGGSEnJyc/oIg6P0blFRYUVhWE/qehYl6u1Nx/WTfvn0zwJ3GRBQCDIREFGxqAELPnj0z5F4sPBe5YVD0n5PVss8nJycPReN0OxgKiSiIGAiJKFikO4w1JpMpXa5RkbkupJ0KRyUVVtnnY2Nj+8F3YwnAUEhEQcBASETBIA0vagCC0WjsIdfwwLnakHUqXJVclg+ERqOxL3zXEDIMElFQMBASUbCIYVANQNDpdLK3qyuvbghpp8KR0gghAD24qYSIQoCBkIiCTQ1A7XK5ZANNpJ4/KFVZZ5d9Xq/Xd4U3EDIUElHQMBASUbCoJA+1TqeLlWskd+RKJArw9+AfBBkKiajNMRASUTB5AqFGo5ENhORWXq04UiodHWQYJKKgYCAkomDwH9FikLl60pFWIqKgYCAkomDyhBmr1XpJroFBwzIEAGkJTc7sFjEIElHQsRITUUg4HA7Z7cQpsdpQd6XDqK+vj9x7+hFRSDEQElG7Mhk17d2FdqcUil0uF8/kIaKQYCAkopCorKwslXs+s5sx1F0JO1mp0bLPWyyWUgCu0PaGiCIRAyERBZMYZlxms1k2EPbuorh2LmIohWKLxXK+8ZcMhUQUVAyERBQM0gDjBOA6depUiVzDrNSokHQonA3uLj9C2BiinXD/fTIUElHQMBASUTCJQca5bdu2U3INhveOjfiNJdmZJtnnz507dw7ev0OGQiIKGgZCIgoWaYhxvvnmm2V1dXXlcg2VAlEkUArEdru94de//vV2eEcIRQyFRNTmGAiJKNicjQ/7mTNnvpZrkDMoIbQ9CiM5g7rIPn/x4sUDp06dqgPgQNNQSETUphgIiShYXJCEQQCO7du3fyXXMDvTFLEHVOcqhOFDhw5tg/vvTfw75JQxEQVNZFZgIgo2l+SrJxS+/PLLe+x2e5Oz9QwaNcamx4Wyf2EhLUGvuMN4zZo1O+AOhP6hkIiozTEQElGweNYPojHYlJSU1Jw/f36vXOOcGyJv2nhqVqLs8xUVFadWrVp1Fo0jq/ANgwyFRNTmGAiJKJjEQOgAYANgKyws3CbX8LEfJEXUbmODRo1ZY66Tfe3EiRPb4f77ko4QMggSUdAwEBJRMEkDoR2A7d13390u19CgUSMvJy2EXWtfM0YmKwbgTZs27URjgIbvCCFDIREFhaq9O0BEnZoagABAByAaQDyALqdPn87r2bPnSLk3DFl6EIVlNSHsYugZNGoUvzBUNhBWVFSc6tq16zQAFQAqAdQAsMIdqBkKiSgoOEJIRMHkv47QBsA2f/78P9hsNpvcGxaO7xHC7rWPRff0Uhwd/OSTTz4A0ADvlLE4QggwDBJRkHCEkIiCSQX3hacGgAFADAATgC779++fl5WVlSP3phErDmNXqSV0vQyhlFgtil8YKnvMzqVLl4oTExOnA7gM9+hgNYB6uMMh1xESUdBwhJCIgkluhNAKwPr888+vURolfPP+Pp32XMJF9/RW/G9btGjR79D49wP3KCEPpSaikBDauwNEFBFU8B0t1J48edJ+7733xqempg70b5wSp0OMXsDGY5Wh7mdQzR5zHeb/MFX2tZKSkt1TpkxZC/eawSsA6uAOhVw7SERB1zkvwYko3EjvWNIA9zRo/aRJk/5cV1cnm/pmj7kOM0Ymh7CLwZWdaQq4i/qNN974C9wjg/XwriF0gGGQiEKAI4REFAoqyVd140NjsVhUt912mzY9PX2o3JvuzIjH9mILSi5bQ9XPoEhL0OPLpwbCoJW/Bj969Oimhx9++O9wjwyKo4NWcMqYiEKEI4REFAr+B1R7Rgmzs7M/PHPmzH65Nxk0aqyb3h9pCfrQ9bSNmYwafP7kAJiMGtnXq6qqyh566KE/wh0CxSDof/4gEVFQMRASUSiIoUacNhanRmsB1P3oRz96vaqqqkzujWKg6oih0GTUYM3D1yver7i+vr52zpw5r+3fv/8i3GGwHt5AyMOoiShkOGVMRKGmgt8mkwsXLjiLiooO5ubm3qHRaJoc0JcYrcXUIYnYXmzB2aqGUPf3qqQl6LH56RswvHesYpsVK1a8vnjx4v3wbiQRD6GWrh8kIgo6BkIiCjX/9YQqAEJRUVG9Xq8vGTly5GhBEJrUphi9gIdvTsTJS1YcLq8NZX9bbWy/OGx++gb0MCmPan755Zd/nTZt2mfwrhu8Au8IIXcWE1FIMRASUSj5H4Yv3WQibN68+dLgwYOtAwcOvFnuzRq1Cj+5qSsMWjX+fbwq2H29KjNGJuNvj/ZX3EACAMeOHdsxbNiwt+AbBmvhDYMcHSSikGIgJKL2JB0tVAFQf/jhh8V33XVXVK9evTKV3jS6TxyG947FkQt1KLfInm0dciajBnk5aXhxQs+A7UpLSw+MHj36f69cuVINwALvVLF43AyPmiGikGMgJKL2IHfbTM9o4Z/+9Kcj6enplQMGDMiSmz4GgPREA2aMSEZKrA77zl7BlQanXLOQmD3mOqyb3h+j+8YFbLdv375/DRw48LcyYdD/EGoiopBiICSi9uQffjwbTtatW3e6rq7u6JgxY4bLbTQR3dIzBr8cnQKtoEbhuVrU20MXDHMHJeDzJwdg6pDEgFPENpvN9tFHH70/fvz4v8K7gUQMhNKpYu4sJqJ2wUBIROFIBQA7duy4fODAga/vuuuuG6Kjo01KjTVqFcb2i8Njt3aDw+lCSYU1aCOGBo0aPxncFW/8uA/m/zBV8XxBUX19fe1rr73222efffY/8IZB/3WDPGaGiNqV3LQNEVGoiNPEAgAtAD2AaAAxkkf0wIEDE9etW/fLjIwM2c0mcnaVWpBfeAkbiipRZK67pk6mxGqRnWlCzqAE5A5KaPH7vv/++9LHH3/8t59++ukZuMOfNAyKU8U2+I4OEhGFHAMhEbU3/1BoAGCEbyiMAmDcunXrI8OHD5+o1WoVp5DlFJnrUHC4AgfO1aKkwopdpZaA7Yf3jkVagh6Z3YyY0D8+4FmCSvbu3fvvRx99dPW33357Eb5hsKbx99JNJOK9nomI2gUDIRGFA7mRQiO8o4XRjQ/j3Xff3SMvL+/R1owWKqmss6PwnPtMw7H9Am8Iaani4uJDr7/++v+9/fbb38F7NxbpFLEYBv1vT8fRQSJqNwyERBQupKFQA28ojII3EEY3PqefM2fOgDlz5jzYs2dPxeNpQslsNp9+77331v7mN7/ZB/e6wDq4w18NvKOCSvcqZhgkonbFQEhE4UR6ULUWgA7eKeRouMOh+NAD0C1dunT4448//nB8fHxie3S4tra2av369R//9Kc//QLuKeB6eEcGxUAonSKW3paOYZCIwgIDIRGFG/HoGaHxoYPvaKH0q6Hxde3s2bMzH3jggRGZmZk3denS5bpgdrC2trbq2LFjh7Zs2bJ37ty5u+EOeVb4jgxKv4qjguJdSLiBhIjCCgMhEYUjz51L4F1XKI4WiiOG4sOAxtFCuKeaNQ888ECPRx555JZbb711WLdu3Xq1RYeqqqouHjly5Jv8/PxdK1asOAZ3sLPBGwbr4Q5/4kMcKZSOCvIuJEQUlhgIiShcSUOhGu6wJwZDPbzBUAyJ0lCoReMIY3Z2dvK0adOykpKS4tPT0/vp9fqo7t279wv0B9fW1lZdunTp/JkzZ06Xl5dfzM/PP/Dhhx+ehTfUiUGwAb7TxGIQtEpeE4+U4XpBIgpbDIREFM7EGqVu/LUGviOGenjDoRgIxYe2sb0G3pFG8XPcjxHTH4KpVzZcLkClAipPb8DOVavhDW5ikHPAHezER4PkIU4VS4Og3PQwwyARhS3eqYSIOhInfEOaGNRsMo8Gya/929jRe1gPpA37OQStAEEDqDWA0dQb1rqdqDprhm/IE9cDSncNSx+18A2EcmGQiChsBb7nEhFReHBJvkpH78Sg1wDvVLE4MiidPhZHCsVRQjVu+tFU6OO03o9WAVBpcdN9U1G669dQHhmUC5liAJQeMi3tMxFRWOMIIRF1RP7BUBrc/Nf3NZ3avXPeSCRd/zg0evg8tAbAEJ+KbumFOLXjCHyPjRF3DPuvE/QPhJweJqIOhyOERNTRSIOWOCLnvwFFfAiSh/u5Xtcb0esHz0HQAi7/u8Wp3GsJe/1gHnpl/AOnv6uD78if3Cig/2gggyARdTgcISSizkAMYU7IrzP0TvFO/tMMGGLvg1oLqFVmaAzREHSAoAPUavfvtYY4pI29jG/W/gf+aw+V1wcyCBJRh6Vu7w4QEV0j6dSxdGewdArZPWX82BoTorrM90wRQ/NbaAzwPCD8FoLO/VpUl/l4bE0X+B4q7X+EDDeNEFGnwEBIRJ2J/3Ex0lFCB+J7vgJBMEAtACrVAbyZnQdBA8/jzew8qFQHoBYAQTAgvucrks9gCCSiTouBkIg6M+8Gj1nbboKgfhSqxnWCamEOAKfn9yoVADihFua4f68GBPWjmLXtJnCjCBF1cgyERBQZBPUq9y9UgEtVgLzRmwG4pOdUA3Ahb/RmuFQFTd9HRNR5MRASUec3d9tjALIAAE7UQxB+EbC9IPwCTtQ3/i6r8f1ERJ0WAyERdW4LNxvgxCLvE66X8Lth5QHf87th5YDrJc/vnViEhZsNweoiEVF7YyAkos6tUpsJtTrF/RtnCeIblrXoffENywBnCQBArU5BpTYzSD0kImp3DIRE1LktH10Ip+t9wLkBDkzCS+Pqm30PALw0rh4OTAKcG+B0vY/lowuD21Eiovajau8OEBG1q7k7vDuHl45kTSSiiMQRQiIiIqIIx0BIREREFOEYCImIiIgiHAMhERERUYRjICQiIiKKcAyERERERBGOgZCIiIgowjEQEhEREUU4BkIiIiKiCMdASERERBThGAiJiIiIIhwDIREREVGEYyAkIiIiinAMhEREREQRjoGQiIiIKMIxEBIRERFFOAZCIiIiogjHQEhEREQU4TTt3QGKeKoWtHEFvRdERMHTkjoHsNZRO2IgpFBRKfxa7vdSLr/XXQq/JiIKB1dT61x+r7POUcgxEFIwqWS+qqqrq4cJgpCi0WiyVCpVhlqtTlH6AKfTWeJyuU7b7fZCp9NZGRsb+x+4C6QYFMViyaJJRO2lSa3bu3dvl/T09CytVpup0Wh6CYIwLMD76x0Ox9d2u/2CzWYrMpvNRRkZGecbX/Ovcax1FBQMhNTWfMIfANXWrVu7DB06NEen090nCMJdarXa0NIPEwRhDADodDoAgMvlgsPh2Gq32/9hNpvX9+rVqwTegMiCSUShItY4z6/Pnz+fGR8fn6vT6SYLgnBTaz5MEITxYp2Lj4+H3W4vdTgc/6iqqvpbt27ddoIXwhRkLV3XQNQcaXFUnz59Oi0xMTFXp9P9SAx1weBwOA46HI5/XLp06R/du3ffD4ZDaq25O7z/RpaOZE2kQJpc8JrN5hHx8fGTBUG4TxCE3sH4Qx0OxwWn0/lFfX39P+Li4grAOkdEYUgF9251AYCmpqbml3a7/YCrHdjt9hKr1frKu+++G9vYHzV8gypRU3N3uDwPInliHVED0GzdujXJarWusNvt5aGucw6Ho66hoeGDQ4cO9YR7lo91jojalTQIaisrKyfbbLZjoS6Ocux2e7nFYnkGgBa+wZCoKQZCCswTBJcvXx5XW1v7gt1ur2zvOudwOOrq6upe3bhxYzcwGBJRO/AZETSbzbfZbLat7V0c5dhstmOVlZWTwWBIgTAQkjyfi96qqqppNputtL3rmj/JBbAOrHN0DfiPhlrDM21y6NCh6/r37/8HrVb7o9Z+SGWdHYXnalFYVoMLFht2lVoU26Yl6JGWYMDt/eKQ1kWPtAR9qzttt9u/unz58n81Lsx2wnftDUU6riGkpjy1zmw2j0hISPh9azeJAECRuQ4lFVbsPn0FJRX1KKmwKrYdmx6P/kkGpCXoMbx3bKs7bLfbv6usrPxVUlLS5/Ctc6x11CIsftQSKslD/f3330/s0qXLB4IgxLf0A0oqrNhQVIn8wovYcrL6qjuSlRqN3EEJyLmhC7JSo1v13pqamv+OiYlZDMABFksSMRCSl7TWCRaL5amYmJgVrfmAXaUW5BdeQsHhioABMJCUWC2yM03IGZSA3EEJrXqv1WpdvXLlypmzZs2qBS+AqRVY/Kg50sXU6urq6tmxsbGLW/LGkgor/rz3exQcrkBhWU2bdywtQY/sTBMevSWpxVfUDQ0NH+Xl5f1s/vz5NWCxJICBkETSWifU1tYuMRqNM1vyxi0nq5FfeBEFhypQbrG1aacMGjVyb0zAhP4mTB3SFQZN83ectdvte77++uvJo0aNOgffC2AiRSx+FIinQC5cuDDmN7/5zTs6ne4nzb2p3GLDS1+cwVs7LgS/h41yByVg0T29kNnN2GxbFkvywUBIklq3fv36rtnZ2at1Ot2dzb2psKwGC/55GhuKKoPfQ7hHDvNy0jB1SGKzbe12++ni4uIpGRkZ38Bd58QLYCJZLH6kxDNtsnnz5tTRo0f/Q6PR3BjoDZV1diz/qhyv/7sM9XZnaHrpZ8bIZCwc3xMpsdqA7ex2u7m4uDiHxZIYCCOeZwZk7969/QYPHrxeo9FkBHpDucWGBZ+V4v0934emh36yUqORl5OGsf3iArZzOBzWysrKpxITE9eAS2WoGSx+JMdTIL/77rub+/Tps16j0XQL9IZlW89j8aayNp8uuRoGjRrz70jFrNtSYDIq34zH4XBYL168OCUlJeVzMBRGLgbCSOaZIi4rKxuXnJycH2htdGWdHYs3ncOyrefb7aJXqqUzIxaLZWFcXJy4fppLZUgWix/58xTInTt39rvlllu2BAqDlXV2TFp17Jo2igRLSqwW66b3D7i+0OFwWIuLiydef/3128FQGJkYCCOVp9Z9++23N2dkZGwWBEHxGIPCshpMfOdoWFz0Shk0aqya2q/ZaeTLly/PTkhIeAsMhaSg+dWpFEk808Rz5syJueWWW/IDhcEicx1GrDgclmEQcE/rjPvjt1i7/6JiG0EQ9GlpaWu3bt2aDp7hRRQpPGHw008/7XH99devDRQG1+6/iBErDoddGASAersTD64+jpe+OBuwXVxc3OKioqJRYJ0jBQyEJPKEQQCa11577Z1AawYLDldgxIrDKDLXhayDV0Mslgs+O63YRqPRdBsxYsTamTNn+t/yjog6H08YnDlzZuydd975gUaj6aXU+KUvzuLB1cfDYoo4kBc3nsGkVccU+ykIgr5fv35rPv744x5w1zne1YR88B8DAX5h8PLly8+bTKaFSo1f31QWMGCFq9xBCVgz7XrFYxvq6uo+joqKmgbABu4+jhycMo4k0lqntVgsv4+JiZku17De7sT0tScDzjCEo6zUaKx7rL/iIf5Wq3Xvs88+O/Htt9+uBpfJkARHCAmQXDGfPHny7s4YBgH3qOaDfzmu+LrRaPzx5cuXfw3eF5SoM5KeM6gxm81PKYVBAJizvqTDhUHAvdZx0vvKI4V6vf6WJUuW/C9Y58gPAyF5rpg3btyY3rt37/eUGhYcruiwYVBUcLgCr28qU3zdZDItPHHixDj4Fksi6vg8YfDIkSMjExISFik1XLb1fEjPUW1rhWU1mL72pOLrMTEx08+dO/cYGApJgoEwsvlMn4wePfp/lY5cKDLXBRxd60gWfHYaBYcrFF/v3bv3sunTp8eChZKos/AZHbz++uuXKW0i2XKyGnPWl4Syb0Gxdv/FgBe/SUlJCx9++GFx3TRrHDEQRjCfArlnz56RUVFRE+UaVtbZMfGdo2G/qLo1HvzLccUNMRqN5vpFixb9HIAWDIVEHZ1PrTt+/PgkrVY7SK5hSYUVk1YdC2nngmnBZ8p3UdFoNN2WLFnyDNx1jptMiIEwwqngnjLQDho0aKlSo0mrjl31TdrDVb3diYnvHEVlnV329YSEhFlTp06NAXcdE3UGari/l3U9evR4Xq5BczWho3pw9XHF+t21a9dfrVy5Utx1zDoX4RgII5PPruJjx47lGAyGG+QaLtt6PmzPGbxWJRVWxakhrVab9MYbb/wXOEpI1JH5jA6eOnXqEaVat+Cz02F/jNbVqKyzY/raE7KvCYKgv//+++eCo4QEBsJIpgagnjx5ckyfPn3+n1wD922alNegdAbv7/kehWU1sq916dLl5ytXrkyFexSVhZKo4/GcoDB58uSYHj16vCDXqNxi69CbSJqz5WS14rppk8n0yB/+8IdUcJQw4jEQRh6fK+a8vLwntVptulzDl744G5Yn87c1pRP+JVfPGvDqmaijEb9XpbUuSa7hnEMpRxgAACAASURBVPUlnWqNtJxAde6hhx5aBM6GRDwGwsjjuWIGoO3WrdvP5Rp19itmqYLDFYoLr00m0yPz589PBAMhUUfjX+uekWtUWFbTIc8bbK3CshrFUcL4+Pic5cuXc5QwwjEQRhbpFbPw0UcfDdRqtT3kGi74rLTTXzFLLfin/PmKgiDoH3/88fvAUUKijsRndHDTpk0jlEYHm7sHcGfyi49OKdb1iRMnjgfPJYxoDISRR9340I4YMeJ+uQaFZTV4f8/3oe1VOwt09ZyUlPRDcNE1UUfjGR3MyMi4U65BoO/7zijQzE9ycvJEsM5FNAbCyOKzu9hkMo2Ta5RfeCmknQoXK3fKF8rY2Njx48aNkx5BA7BYEoUzn1rXpUuXCXKNln91PqSdCgdK9T06Ovp21rnIxkAYOaSbSYTf//73faOiorLkGkbSFbPUlhPVsmeQCYKgf/XVV8eA62uIOgKfWrd8+fK+UVFRA+QaKq0d7sx2lVpkNwuyzhEDYWTx7C6+4447ZKdQisx1nfIsrpaotzsVf0BkZGTkgOtriDoKT60bP378HXINlIJRJCg4JH/RzzoX2RgII4fPcTM9evT4kVyjSB0dFK0/cln2+bi4uNvh3VjC6RSi8CWdLhZSU1Pvk2u08VhVSDsVTtYfka/zrHORjYEwMqgkX4Wf//znCUajUXa6eP1h+UAUKTYUVcruwtPpdImffvrpMHA6hSicSXcXq5944omuUVFRg+UaRvLF75YT1Yp1Lj8/PwuscxGJgTByeNbU3Hffff0FQdD7Nyi32LCr1BL6noWRyjo7tpyQv1VfRkbGLfDdgcdiSRR+xCAj5OTkyNa6kgqr4h2KIkGg5TF9+/bNAHcaRyQGwsjhCYSpqan95RpEehgUFZ6T/0FhMBh6wvc8QiIKT2oAQs+ePTPkXlT6Ho8k/1G4R31ycvJQNE63g6EwojAQRgaf9YMmk6mfXKNI3Uzi78C5WtnnY2Nj+6HpVAqLJVH48K91srflZK1zj5LKaaxz0o0lAOtcRGAg7Pyk39BqAGqj0dhTrqFSEIo0Sj8sjEZjX3gLJdfXEIUX/1onGI1G2TsxsdYBJZflA2FjnZNe+LLORQgGwsjgCYMANDqdTvYWTuXVDSHtVLhSunIGoIdvGGShJAov0lonsNYpa6bOcVNJBGIgjCxqAGqXyyX7TR6pZ3L5kzucGgD0en1XsFB2THO3Z2LWNtmd9c2atS0Ls3amtW2HKMhY65rRwjrHWhdBGAgjg3RXrFqn08XKNVK66XkkCvB34V8kWSzD3bzdKXC6NkNQ78fs7fNb9d7Z2+dDUO+HyrET83anBKmH1HZY61qhmTonrW2scxGAgTByeIqkRqORLZLkVV6tOILAMNjROO0mqNWNYU61EHO3Z7bofXO3ZwKqhQAAtToFTrspWF2kNsVa10LN1DkujYkwDISdn/9VHr+5rw3PIOxolo4qApwbAABqGOBSLWrR+1yqRVDD4P6Nc4P7cyiMsda1Hda5CMRAGDk83+BWq/WSXAODhv8cRGkJTc6yFbFAdkQOLPD8WoVczN2eG7D93O25UMHbRvp+CnesdS3EOkdS/K6IQA6HQ3aLXUqsNtRd6VDq6+sj915XHd3y0YWAc5nn907VIizcbJBtu3CzAU7pKKJzmfv91NGw1rUe61zkYiAkj5Q4XXt3ISwo/bBwuVw8q6IjU2sXw+ksd/8amajWz5BtV62fATXc6wydznKotYtD1kcKCZNR095daHesc+SPgTACVVZWlso9n9ZFcfogomSlRss+b7FYSgG4QtsbajO/G1YOldob7lxY1GTn8LzdKXDBOzqoUi/G74aVh6yP1KaUal1mN2OouxJ2WOfIHwNh5HGZzWbZIjm4e1So+xKWlH5YWCyW842/ZLHsqPJGLgPgnv5VwwC73XeDid0u2UiCwsb21LGI35+Kta43L35Z56gJBsLOzyX56gTgOnXqVIlcQ141uw3uLn/l3PjDxQn33yWLZUelUs3x/FqtesznNenvpe2oI5B+TwasdVmpvPhlnSN/XEgReZzr168v+ulPf9rkhazUaKQl6APd0igiZGfKHzd37ty5c/AWSeViOWtnGtTO4VC5hsGpMkHlXIm823YFq7/USktGbMGcHQU+u4j9uVCApSO2hK5TFNCcr4bDpX4KgqocTtcBONW7sHxEiUJr8XvTuW3btlNytW5471ikxGoj+o4l11znqNPh1vLOT7y3pw6AEUAcgISqqqqCuLi4nv6Nf/H3U3hrx4UQdzF8jO0Xh81P39Dkebvd3tC/f/8fnjp1qhxAFYBaAA2Yk6+FutcwOJ1joXINA9TDAfhX2kIsHTkk+L2nFpu3OwV2R7FketjLiXpohD5cOxhGZu846tnoI3I6y6FS7wJcB6BWb4Hz9G7kTWkAoAUQhcZaV1tb+5nRaGxyl5npa0/g/T3fh6T74WZ471jsfHZQk+cV6xzgAINhp8cp48ghThk7ATiOHz++Sa7RlKzEkHYq3ExQuGq+ePHigVOnTtVhzLP98ejqRzHzy7fwzJbDUPWohcu1GSrVQkCdjaZhEICTwSK8qPC7YRcgQH59oIBl+N2wyL0qCkdqZ0nT59QpUCEXKtVC9/dgj1rM+s8+PPOvFXjsr1Nxx7xMAPYzZ858LfeROYMSgtzp8JUzqIvs85465w6A4rQxRQhOGUcGnzAIwP7vf/9718033/yof8PhvWNgMmoUb3ze2U1VCMSvfnIkGQ/9eQei4vTQRQOCFhACfvsUAqpdgGM3lo5+Pxh9pRZRvh/rhe2vInHEY97b2sE96lR75BX43qVB+kORPyDbw9LREzF322OAMAxwDQeQJdtOLQwGMBgx3YB+Y4DrBlt/s67o7EfPZzRpmp1pgkGjjsj7GucqhOFDhw5tA2CH9+cFp4wjCKeMI4MagABADyAGQDyAhLq6us8MBkOTS8UHVx/H2v0XQ9zF9pfZzYijz8v/nLluxgcor9cA+lhAZwQEHaAWAJUKcLrKoUYhXKrdUKu3IKZ+F14aVx/i7pOX/72mVXv37u2Snp6epdVqMzUaTS9BEIYBwJs7y5OeWXd6gPjGNyb1OvqLESlnHA7H13a7/YLNZisym81FGRkZ/jsv/b9SKC3cbMAVw/AmSzVcTsDlBBw2oKEWaKiBwVGDy+8+AoO26QXcxHeOYkNRZej7347SEvQo/q+hsq89/vjjk1etWvUtgEoAVwDUwx0QGQwjAEcII4c4SmhvfNhOnjy544YbbrjHv+GUrK4RGQiVrpp3fXce5dUNgEEPqNWASu0OggDgVBUBruVQawu45qxdSUf0VABU58+fz4yPj8/V6XSTBUG4Se5Nvxydir9+cxm7Si0Y3jsWvxydOgDAAEEQxut07oPa4+PjYbfbSx0Oxz+qqqr+1q1bt53w/oBUgeEw9NwXXFsAbMGsnWlQObIB9SyoVZlwqdzfn2oBUAmod6iw8ZsSZ86w9CZLpHJuSIi4QKg0C1JRUXFq1apVZ+H++eA/Zcx/2xGAawgjg2fXHdzf6DYAth07dnwl1zh3UILioaWdVUqsFgsn9JB97ch3p7ZDLQBqjXdUUMweamRCrX4TTsd5zN2xH3N2zMasnWkh63hkE/9HqMWH2WweZbVa8+x2+4mUlJRDRqPxFaUwKHrz/j4+X+UIgtBbp9M9k5SUtNVut59taGhYVV1d/WPJn62CbyilYJq1Mw1zdszG3B37IbiKoVa/6dl0omr8J6ES3Ms61BocO37iM7mPeewHSRF1GzuDRo1ZY66Tfe3EiRPb4f7ZIA4acA1hhGEgjBzSQGgHYHv11Vf3WK3WGrnGeTlpIexa+3v+h6mKN7w/8EX+SlguvSmOOLh/2Ki8o4ReWVAhD4KrGHN37Mfs7fMxd3umzEfStZGGL2Hr1q1dG0Pg2aSkpK06ne4ZQRB6t/TDslKjsfnpG1p8ESQIQrJWq50WGxv7N4fDYWloaFh16NChVLiXZTAYBsvc7Znu76nGEKhCHpTWEqpUjaP5AlBtztv+tzfflWtm0KgjqtbNGJmsGIA3bdq0E42DBfAdIWQojBAsWpFDXEeoAxAN9zrCLgcOHJh/0003TZJ7w6RVx1BwuPPf5zwtQY+jz2fJBsKKiopTXbt2fRjAZUxf+yKiE6dA0IojhbsA1y4AuYA6TfEPcKIIKlc+VFiLpaOKgvYfEhk8o4LLly+PevLJJ5/V6XTzBEGIb89OOZ3O+oaGhiVbt25dMWHChApwuq1tzN2eCRemwqWa0uTYGR/OEgAFgHosXM4szzpCy/dv4/2pvwPQ5fTp03k9e/YcKffuIUsPorBM9tq40zBo1Ch+YahsIGysc9MAVMC9frAGgBVcPxhROEIYOaTTxna4rwIb5s+f/1ebzSZ7OuvC8fJTqJ1NXk6a4ujg4sWL/xfuc7gasGrqLwHnl1CJbVXD4VRdwNLRfeBwDgGcy+BE08CnRqb7WBrVUczecRRzt+Vh1jb5kQ1SIp0aFqqqqh58+umnxSnhdg2DAKBWqw0Gg+G/7rjjjoMWi+UXcK/Plk4lU0vN2paFudvyMHdbMaA6CpVqoWwYdKIIcC6DwzkES0f3gUtVBSDLs6TD6fwE709dgMZRr/nz5/8hkmvdont6KY4OfvLJJx/AXefEKWNxhBBgGIwYLFSRQ/yBKgAwwL3b2ASgy7Zt254eNWpU0+P80fkPqs5Kjcb+ufJLzEpLS3elpaU9D+Ay3FfNFtz+KJD1+BYImsHebx/ndJ+jZVo7quHAn7F8dGGb/Ad1Tp5RQbPZPCIhIeH3za0LlFNkrkNJhRW7T19BSUV9wDvyjE2PR/8kA9IS9BjeO7bVHbbb7d9VVlb+Kikp6XP4Tr3xh6ucOV8Nh0o1BVc72j572wyo1W+6f+MCnM7dOPyXCfjX24Ck1u3fv39eVlZWjtxHj1hxGLtKLW31XxRWUmK1KH5hqOyF76VLl4oTExOnw1vnquHeXWwD1xFGFAbCyCKdNo6Ce9rYlJqa2u348eN/NRqNTQ5VLrfYMGBxYac8l9CgUePznw/A2H5xTV6z2Wy2BQsWzF6yZMk+uAtlNdzHMDTgifwYxHffBwhpANx3tlBhEvJGbmjyQXO3Z8KJXKhVU6C03glwn3+nFgqgQj6W8JZpjXzWCloslqdiYmJWtOYDdpVakF94CQWHK676lowpsVpkZ5qQMyhBcSe6EqvVunrlypUzZ82aVQuuyfL13M6xcGEKnI5cn7MgmyqE05UPNQpkl1zM3Z4LqNZ5fu9EESxnRuG9KRZ4l8jEAegyfvz4vp9++ulftFptk6GywrIajFhxuFOeS7hqajoeuzVJ9rV58+bNXLJkyTdw17kqcLo4YjEQRhZxlFAL9yhhLNxXzqYNGzY8MmHChJ/JvangcAUmrToWul6GSF5OGmYr7Ljbv3//P4YOHZoH9xWzeNVcB/GqedbOXlA5dnp+kDlRD5dzRMCRvlk706B25UKFR9GScAjnRiwdVXCV/3kdnXQHsVBbW7vEaDTObMkbt5ysRn7hRRQcqmjze9UaNGrk3piACf1NmDqkq+JSAym73b7n66+/njxq1Khz8N4CLDJ/yM7dngsncgBXdrMh0IU/w6kqCHDPYneodLg+99yC0Oksh0sYgeUjSuG++NXAfctOT63bvXv3Mz/4wQ9+Ivdxy7aex5z1yn9cRzR7zHWKG2dKSkp29+nTZwHcNe4yAAvcda4B3sOpKUIwEEYW8YesBr5XzqbU1NRuBw4ceKNr166yZ2+8vqkMCz47HbqeBtmMkcl48/6+sq/ZbDbb3Xff/ei//vWvYrgLpf9Vs3ukZ9a2LKjUOyX3w62EQzUk4A8w0bzdKbDbcqFSTYFKNTZAy0o4XQVQY30EhUNPGFy/fn3X7Ozs1Tqd7s7m3lRYVoMF/zwdsnPlUmK1yMtJw9Qhzd/u0W63ny4uLp6SkZHxDSLttmBiCFSrciF7a8dGLtcWuFz50LTwTM9Z27IgqDdLPrMSDue4xosyaa3TQ1Lrunfv3u3EiRN/kZsRATrXMpnsTBM+f3KA4uvPPffcL5cuXbof3tHBK/CvcxQxGAgjjwruK2dxlFC8c0mXd955Z/zPfvazF5Te2FnuYDK2Xxw+//kAxdGdbdu2rb3ttttWwjs6qHzVPGdHNlxY5w2FzhLE2ga06k4lYjhUI6fxfshKKgFsgMu1HnENBZ30biiezSN79+7tN3jw4PUajabpfcckyi02LPisFO/v+T40PfSTlRqNvJw02aUHUg6Hw1pZWflUYmLiGviOFHauH7oLNxtQrcuFSpXjXi7huWCS4dwAJ9a3OASK5u1OgdO207PeUH7ZhrgJSQv3KKG4ltC0YcOGaUozIvV2Jya+fRRbTla3uDvhKC1Bj/1zb4LJKH//iaNHj24aOHDgq/Ctc7XwPXaGIggDYeTxHyWMQuOVMwDTgQMH5t10000T5N5Yb3di3B+/7dALr5srkmfOnNnfq1ev+XBfLYujg7UIdNU8d9tjgHqV9wm/TSatMWuzCYI2Fy51DlTIVWznRD3UKOhk4dAzRVxWVjYuOTk5P9AO4so6OxZvOodlW8+Hxbqv3EEJWHRPL2R2MwZsZ7FYFsbFxS1GZzrrTfx3C/WEZkOgCwVQOdfDYSvA8nFXN5zrs4kEUPieUxwlBBB/+vTpxT179hwi9/GVdXYMWXrwqtedtjeTUYOdzw5S/LdYVVVVNm7cuFn79+8vg3dJTA28t6rj6GAEYiCMTOIooQa+o4Tx1113XdKePXteS01NvUHujZV1dkx8p6hDhsK0BD0+f3JAwCI5ZsyY5w4ePHge3qtm8X6egdfUzNkxGyrkwYl6aIQ+bXIbu1D/kG1fnjD47bff3pyRkbFZEAS9UuPCshpMfOdom68RvFYGjRqrpvZrdhr58uXLsxMSEt5CRw6Frb14gXNjm/37dE8X7wcAuDAHeSOXKbSUjhKK66bjAJgGDx7c/T//+c/S+Pj4VLk3FpnrMPGdox0uFJqMGqx5+HpkZ8rPztfX19c+/fTT8yT3LK6CdxaEo4MRjIEwMnl2bsI7ShiLxlB44403Xrdjx47lMTExstvS6u1OzFlf0qHW2YztF4d10/srjgzW19fXPvjgg3MKCgpOwjs6KE6htGzH3aydaTDVlwdltK4103AuFMDl3Njqabj24wmDn376aY8JEyZs1mg0vZQar91/EdPXngyLUUElL07oGfBsO4fDYT1x4sTdmZmZ2+H9ARy+/0Gili5vCMUI9qzNJsBgambNrtyMiLjBJD43N7ffmjVrlhkMhii5N5dbbJi06liHuQBu7qIXAJYuXfrKc889txXuUUFxdDDwLAhFBAbCyCXdcayHd+o4HkDcI488krly5crFSoUSAN7acQG/+PupkHT2WswYmRzw8GmbzWZ7/fXXX/nv//7vr+EujlXwHjMjTqGIa77CQ7AW6oeeJwzOnDkzdsmSJev1ev0opcYvfXEWL248E7reXYPcQQlYM+16xX93drvd/Mknn4z88Y9/fBbh/IN41s40qBzZHXgDlP+MSDS8oTDu5ZdfHjZ//vz/J3cUDeC+AJ6+9mTYr59u7qIXAL788su/jh8/fjXc9U2sdTWQnqDQES5MKCgYCCOX9FgPHbyF0hMKf/vb346eN2/efwX6kC0nqzFp1bGwPacw0NEyor///e/v/OQnPymAt0iKYVDcSBLeR4W0/CiPXXAhv9mjPFpr3u4UOJ0L4XJeQFzD660YDZKOVGstFsvvY2Jipss17Cg/lP1lpUZj3WP9kZYgP/tttVr3PvvssxPffvvtarR297F71Hg+VOpkqNUvtWngb80RSVBtCMMQKOXz7wzeDSZirYv96KOPJt1///1PBvqQcD5pIdCpCaJjx47tyMzMXATfOifdMMdzByMcA2Fk859OEQulOH0c+8knn0y+9957Hwv0ISUVVkxfeyKsduW1dOfnpk2bPrrjjjv+DHcAlI4M1sJbJMNz5EZOaw77bck5by36M3csggvz3b9xbkCsbVILQqH0gkRrNptnJCUlLVVq3JGPAslKjcbOZwcpjhReuXJlVWxs7C/hXb/V/A/lhZsNsGjXeaZtVXgdS0YuuKaOdu5D1KV3atLDNxTGAYjdtm3bz0aNGqW8FhLAhqJKLPjn6bC577HJqMGiu3thxsjkgO1KS0sPDB8+/NXy8vIKeOuc/5KYjlPnKCgYCEkslOJOvCaFcsWKFbfPmDFjltKUiigcimVKrBaL7umteCq/VH5+/ntTp079B9wBUHrF7F8kO+YUynM7x8LlyMHV3g6spfx3WTtd72PZKNmRPglxsb/myJEjo/r37/+Z0iaSznBY8NQhiVjz8PWKr58/f35m9+7dV8H3dmHKP5xnb18Fteox7xNXubO9tbdZVAnrO1AI9Of5NwdvrRM3mcQBiPnLX/4yccqUKT9rrta9teMCXvriTLtuapo95josHN8j4BQxAOzbt+9ft9xyyx/QtM6JZ6u27N8cdXoMhAQ0LZTiwmuxWEY/9dRTAxcvXvyr+Pj4Zk/hfX/P91jwWWlIi6XJqMHzP+yO2WOua/buEfX19bWLFi363csvv7wP7qJoQdMw2PLRmo5g1rYsCHgULQmHAgpgd+a36v7Kc3as89lp6nK9hLxRLyq0lo7W6BoaGnZqtdpBcg23nKzGuD8eaXE3wtmie3ph/g9lN7TCbrebp0+ffuPq1aur0NxozZztL0KlWuj5vQsFyBs5qcUdaem/hc53r22fUWn41rq4xq8x8+bNu/GVV175TaD104B7GYN47FEol8zkDkpAXk6a4jIEkc1ms3388ccfTJ069VM0rXPiETOdq87RNWEgJMB3jY248DoK3unjWADRAwcOTNy4ceOve/TooXz0faN6uxNv7biAP+/9PqgjhmkJeuQOSmjRlTIAVFZWnps2bdr/fPrpp2fgLZIWuK+epedwdd71NK0dFWpJIFi42QCLfjOA4d63O3+BZaPf8mvps57r+PHj96enp38g95ElFVYMWXowbNenXo3PnxygeByI2Wx+NTk5eTECredqcv4ediHWOq7ZKfo5Xw2HSjUFwR4tDn/+6wmltS6u8Wv0vffe2+tPf/rTr5KSkno394HlFhsWbyrD2v0Xg3YRLN4y8akRyc0ugwHcF73/8z//s+SVV175Bu66dgXeWifWOXF9NKeKCQADIXkpFUpxR14MgOhu3brFffbZZ0/ccsstd7T0g0sqrNhQVIn8wottss4wKzUauYMSkHNDF2SlRrf4fSUlJQfvueeevG+//fYi3COBYpEU1wxKr5gjo0iK4VClykGgdWNwlgDChoDrxmZtNkGl3+kbMl2T/DYb+Fx41NXVbTMYDE3OvKy3OzFkyUEUmeta/98UxkxGDfbPvUl2dMfhcFjfe++9rKeeeqoUcjs+527PBVTrPL93oggu6wjFc/1atZ7Utb4Th0B/0hFqcaQwGu4aJz6iBw4cmLhu3bpfZmRk3NzSD95VakF+4SVsKKq85n+7KbFaZGeakDMoAbmDElr8vu+//7708ccf/23jRa9Y58SHdEcx1w2SDwZCkpIrlEZ4Q2F048P4wQcf3HX//fc/GBUVpXgnCTmVdXYUHL6MA+dqUFhWg8JztQFHgFJitcjsZkRWajT6JxmRnWlqdqrEn81ms23duvWTO++88//gDn3iFbNYIMVp4si+Ym7NzlKlTQXuI0p2egKIE/VQOcYh77Zd8NvEdOrUqcf79OmzXO6PmLO+BMu2nm+T/6xwM7ZfHDY/LXvuOy5duvROYmLiPPgv9J/z1XC4hM2e8yedznK4hBFNNgS1fMd5220q6pj8a50B3vXT4iMKgHHr1q2PDB8+fGJz6wr9FZnrUHC4AgfO1aKkwtrsWYbDe8ciLUGPzG5GTOgfj+G9Y1v9H7V3795/P/roo6v9Lnqldc5/ZLBjro+moGAgJH/SQildfC2GwZjGr8YBAwYkrFix4t7bb7/93tYWSzmFZTWorHd4QmBbKCws/GrmzJn/t2PHjgtwXxlLi2Qt5NcMskiK4RCunFafPee+i8RmeM9HrARcI7B01HdoXL81efLk+L/+9a8HtVptk90/5RYb+rz6TVgfPH2t1k3vLzvq43A4rCtXrhwyc+ZMcZTQgbnbMwDVTkj/Ph3OcZ5p/NacSQnV+ggOgf4CXQCLdS4agPHuu+/ukZeX92hrRguVVNbZUXiuFgBaNP3bEsXFxYdef/31/3v77be/gzv0ydU5uRmQyLvwJUUMhCTHPxSK5xSKa22iG39tBGAYOXJk0rJly35y6623/rCd+ttEcXHxoUWLFq155513TsAd+OrgvkoWH7Xwnr8VWdPErSXenaKlBxOrsBEq1MOpWuO9o4qzBHV1d+DNu84C0J89e3Z2amrqy3If8uDq4x3uvMHWykqNxv65N8m+VlVVtd5kMj0KoB5P/rMHYuP+5Vn350Q91K4H4YKhZXetCfuDydub0gWwuFzGEwoB6OfMmTNgzpw5D/bs2TPA2tvQMZvNp9977721v/nNb/bBW+dq0bTOSS96GQZJFgMhKfHfaKKDd1ee/0MPQD9lypReL7/88tS2uIq+Wmaz+fSKFSv+8tprrx2EO+xJi6RYKOvgnToR70LCMNgSrbl/LZyVvtOWrgMo+iIb/3ypoaGhoUhudLCwrAZDlh4MStfDjdIoIQCsWLHihln/vHAZN9zzOaAa7HnB6SwH1KZOfl/rUBNDobj7WLwAFkcL/WudbunSpcMff/zxh1ty6kIw1NbWVq1fv/7jn/70p1/AXcfq4R0ZFOucdIrYfzcxax01wUBIgUiPadDAO60iFkuxSBobn9MB0E2cOPG6n/3sZz+49dZbh4biSvry5cvnDx48uG/16tU733333ZNwFz8r3MWwDt5AKP5avFqW3pKOBbK1x6KelAAAIABJREFUpOHQheyAIUVkt/0rP9v2xwcm3vGx3MuTVh1DweGKNu9qOEqJ1aL4haGyxyTt+/a7X92ysnwCNNo7m/0gJ+qhwgaGwGsivQAW7/EuHS2UfhVrnXb27NmZDzzwwIjMzMybunTpEviWSNeotra26tixY4e2bNmyd+7cubvhrXPSi17pV/86x4teCoiBkJojDYX+o4ViMBSLpPjQwR0ehczMzLh58+bdOnr06KF9+/a9sS3WGgLAmTNnivbs2fPNO++8s2fDhg0X4C54NnhHBaVhUPy1uHGEUydtzX0btdyWTGMO7a4/tu+5of39n4+k0UGR0q0V7/jjgfJNJ2uVN4U4UQ81CuByrUdcQ0ErbhdIyvxrnXS0UFrrxHqnb3xdA0DzwAMP9HjkkUduufXWW4d169atV1t0qKqq6uKRI0e+yc/P37VixYpj8NY5uYtesdb5jwryopdahIGQWkKFplfQYrGUFky5UKgV35OUlGSYP39+1o033tg7sVFSUlKv5g6ANZvNp2tqaqpOnDhx8sSJE+dWrFhRWFRUdAXuQieeGegfBqUhUDo9LL37CItkW3tu51g4nWOhUs1CgA0Os8dch7ycNJ/npq89gff3fB/kDoaX4b1jsfNZ3zO5W7DDuhIu13Ko1Vs68F1DwpU0FEpnRvwvgsU6Jw2FnlqXnZ2dPG3atKykpKT49PT0fnq9Pqp79+79Av3BtbW1VZcuXTp/5syZ0+Xl5Rfz8/MPfPjhh2fhDXViEGyA7zSxGAStktdY56jVGAipNfyvoP2DoVgw9ZLnxGCokTzUkof4mdI/A/AWMLGYOSUPuSAonT6RhkDxNblpExbJazFrZxrUzuFQuYYB6uGQHkrdjLHp8ci7r7fPOZLXvbi3XW8F1l7Ov3gLUmLdA+eFZTWY849SbDlR1ZqP2AU4d8Gl2g2nehd3EF8zsQaJ9UkD31qnR8tqnVgnpXXOv9b51zlprZPWOTu89Uy88BXrnHTmw7/OMQxSizEQUmtJC5t/MBSnk/0fWslDLJZiofQPhXJFUhoGpUHQ/4pZ+mvpiCALZFuavW0GgIXNnHPn5XIdg8t5EHVVB/7n7h49F9w3+Cn/JrtKLRix4nBb97RDePP+vpgxMrnJ82t2lm7+6Z8P/xvG+MFQqW+CStVkml2W01kOlXox8kYua+u+Rhi5WieOBEovhAPVOmmdk7sAFon1SQyCYq2Tq3PSh/iatM5xVJCuCgMhXS2lYCgNh1qZhzQQ+l89S1fXK4VBcerEv1hKnxOvrKXvZYFsCws3G1Clv6y4RtCJeqhcuwD8B1DtQvWZr/HeFAsad6hXV1d/Ehsb+wP/t730xVm8uPFMcPseprIzTfj8yaZ3g2xoaLio1+tvhHvHqBVP5McgpvswqNXDANwOl2p4wI08sVYj1xZeM+mFqjTYSWc8pLVNOn0sd/HrHwpbOjLoX+OkIdA/CAKsdXQVmr/5K5E8uVE8B9wFzwZv4NPA98pa+pwYJMViK71ACRQIpcXSAd/CKB0NZIFsay+Nq8fcHYXwTg8XAqpdgGM3oNqFZT63PhN/8GkBqJ944omuUVFRg/0/EkDE7CyWs+VENertzia7jXU6XWJ+fn7WlClTdgFQ470pVQA2APjc02ju9kzANRwQhrm/eu4ws4thsE1I64ZYW9Tw1iPpxbBG5iG98FUaJZTWK2kg9K91cnVOercRXvTSNWEgpGvh8vu1WNRUcBcs6eihtHD6r61RmkrxL5TS6RS5oig3LcwC2daWjhyBudszW3jfW/H/rZCTk9NfEIQm9x0sqbCisKymzbvZUdTbndhQVCl7JmHfvn0zAOyB0lSj+/9BEYD3Pc+1/P8NtZxcMPTfgCI+pLMl/q/5z4SIny1X55RqndzFLuscXTMGQmoL0sIk/tCSFkw7fAunfwiUW3Atfp60+EmLpv/zLI6h1LrAoQYg9OzZM0PuxcJzkRsGRf85WS0bCJOTk4cCWAt3uBC/jwL/+2YYDCb/i2AVmoZDua+BLnxdfg//C2H/WgeZr0TXjIGQ2ppcOJR+9Q9/SouspZ8ntxNPriCyOIYXn4PNTSZTulyjInNdSDsVjkoqrLLPx8bG9oN3x6rcxitqH/51Ti4cIsCvlT4z0AUuQyAFFQMhBZNc0QSaFsXmNjcphT4WxvDlvxhfMBqNPeQaHjhXG7JOhauSy/KB0Gg09kXTzVf8dx9e/IOa3DFa/r8O9Dlyv+f/cwo6BkIKFbni5n/mYEvfTx2DdJmAoNPpmty7GADKqxtC2qlwpDRCCPfubGkgpPCnVOtY5yisMRBSe2LxiwxqAGqXyyUbaCLxMGp/lXV22ef1en1XND2zkzoe1joKe03vqk5E1DZ8zqrU6XSxco3q7U65pyNOgL8H/yDIUEhEbY6BkIiCyRMINRqNbCAkt/JqxZHS5u5yQUR0zRgIiSgY/Ee0GGSuntKxTEREbYaBkIiCyRNmrFbrJbkG/nfoiFRpCU3O7BYxCBJR0LESE1FIOBwO2e3EKbHaUHelw6ivr4/ce/oRUUgxEBJRuzIZediBUih2uVw8k4eIQoKBkIhCorKyslTu+cxuxlB3JexkpUbLPm+xWErBI0uIKAQYCIkomDx3cTCbzbKBsHcXxbVzEUMpFFsslvONv2QoJKKgYiAkomCQBhgnANepU6dK5BpmpUaFpEPhbHB3+RHCxhDthO89bYmI2hwDIREFkxhknNu2bTsl12B479iI31iSnWmSff7cuXPn4P07ZCgkoqBhICSiYJGGGOebb75ZVldXVy7XUCkQRQKlQGy32xt+/etfb4d3hFDEUEhEbY6BkIiCzdn4sJ85c+ZruQY5gxJC26MwkjOoi+zzFy9ePHDq1Kk6AA40DYVERG2KgZCIgsUFSRgE4Ni+fftXcg2zM00Re0B1rkIYPnTo0Da4/97Ev0NOGRNR0ERmBSaiYHNJvnpC4csvv7zHbrc3OVvPoFFjbHpcKPsXFtIS9Io7jNesWbMD7kDoHwqJiNocAyERBYtn/SAag01JSUnN+fPn98o1zrkh8qaNp2Ylyj5fUVFxatWqVWfROLIK3zDIUEhEbY6BkIiCSQyEDgA2ALbCwsJtcg0f+0FSRO02NmjUmDXmOtnXTpw4sR3uvy/pCCGDIBEFDQMhEQWTNBDaAdjefffd7XINDRo18nLSQti19jVjZLJiAN60adNONAZo+I4QMhQSUVCo2rsDRNSpqQEIAHQAogHEA+hy+vTpvJ49e46Ue8OQpQdRWFYTwi6GnkGjRvELQ2UDYUVFxamuXbtOA1ABoBJADQAr3IGaoZCIgoIjhEQUTP7rCG0AbPPnz/+DzWazyb1h4fgeIexe+1h0Ty/F0cFPPvnkAwAN8E4ZiyOEAMMgEQUJRwiJKJhUcF94agAYAMQAMAHosn///nlZWVk5cm8aseIwdpVaQtfLEEqJ1aL4haGyx+xcunSpODExcTqAy3CPDlYDqIc7HHIdIREFDUcIiSiY5EYIrQCszz///BqlUcI37+/Tac8lXHRPb8X/tkWLFv0OjX8/cI8S8lBqIgoJob07QEQRQQXf0ULtyZMn7ffee298amrqQP/GKXE6xOgFbDxWGep+BtXsMddh/g9TZV8rKSnZPWXKlLVwrxm8AqAO7lDItYNEFHSd8xKciMKN9I4lDXBPg9ZPmjTpz3V1dbKpb/aY6zBjZHIIuxhc2ZmmgLuo33jjjb/APTJYD+8aQgcYBokoBDhCSEShoJJ8VTc+NBaLRXXbbbdp09PTh8q96c6MeGwvtqDksjVU/QyKtAQ9vnxqIAxa+Wvwo0ePbnr44Yf/DvfIoDg6aAWnjIkoRDhCSESh4H9AtWeUMDs7+8MzZ87sl3uTQaPGuun9kZagD11P25jJqMHnTw6AyaiRfb2qqqrsoYce+iPcIVAMgv7nDxIRBRUDIRGFghhqxGljcWq0FkDdj370o9erqqrK5N4oBqqOGApNRg3WPHy94v2K6+vra+fMmfPa/v37L8IdBuvhDYQ8jJqIQoZTxkQUair4bTK5cOGCs6io6GBubu4dGo2myQF9idFaTB2SiO3FFpytagh1f69KWoIem5++AcN7xyq2WbFixeuLFy/eD+9GEvEQaun6QSKioGMgJKJQ819PqAIgFBUV1ev1+pKRI0eOFgShSW2K0Qt4+OZEnLxkxeHy2lD2t9XG9ovD5qdvQA+T8qjml19++ddp06Z9Bu+6wSvwjhByZzERhRQDIRGFkv9h+NJNJsLmzZsvDR482Dpw4MCb5d6sUavwk5u6wqBV49/Hq4Ld16syY2Qy/vZof8UNJABw7NixHcOGDXsLvmGwFt4wyNFBIgopBkIiak/S0UIVAPWHH35YfNddd0X16tUrU+lNo/vEYXjvWBy5UIdyi+zZ1iFnMmqQl5OGFyf0DNiutLT0wOjRo//3ypUr1QAs8E4Vi8fN8KgZIgo5BkIiag9yt830jBb+6U9/OpKenl45YMCALLnpYwBITzRgxohkpMTqsO/sFVxpcMo1C4nZY67Duun9MbpvXMB2+/bt+9fAgQN/KxMG/Q+hJiIKKQZCImpP/uHHs+Fk3bp1p+vq6o7+//buPDyq8u4b+HfOmSULWSUhGpbIEgJFDRYedoRqWSoK1opQRUEfrbTVkNRHwLd9KVYLtEoStEXcoFYLQVvA6uP2SmhkU1DCpkGWhCUQAwkJIevMnPP+MTkzZybnTBJIJsmc7+e6zpVk5p7kTpgf9+/c6/jx40eazWbLuj2l2Hb8UpNFGsN6dcOvxybAIgrIP1uDOkfgEsMZQ2Lx4SODMGto9yZDxFl551BQWovUxHDY7Xb7u+++u27SpElvw7OAREkI1UPFXFlMRB1C6y6diCgQlORPBGABEAIgDEA3AJEAuqF73/iE6b+dbU8YfHtZrSQuujURy37SW/cbllTZsWJrMTbsu9BuQ8khZgEzbojFL0b1wIR++j2C6VuKkJV3DvHhghxfdzr30BtPvYGywlJ4ksEqNB0q5r6DRNQhmBASUUdShomVpNAGIBzD5gxE6vT5CO8xDaJoVQpnTk/CgvHXtugb7z5ZhZz8MnxUUIGC0tqrqmRChAVTUqIxfUgsZgyJbdFrln9WjMX/e8rzgNPZgMslH2Df5pfx9dvfwTNUbId37yARUcAxISSijuZJCh/d8iNYIx+H1fYTrYJP/MD51fNzRtxosVia7FXoT0FpLTYfKsf+szUoKq/H7pNVfsuP7BOBpFgbUuJDMXlglN+9BPWkv/3lN1lfOwdrPmmv+xA15S/h9Z99Bk/PYMdNgiQiw2NCSEQdLz1vHkxiGmC6yW+5L9b+359EFVdkZmY+mJycrLk1TWtU1DqQf9a1p6G/4d/WKCwsPLh8+fJ/vHJYtmDEvGf8l5b3Q3ZmI3P8OrB3kIg6EBNCIuoYT36RAIdjLiCnQRASWvSa95fMwXefXgJgS09PH5Senj67V69eutvTBFJpaemp119/fcPTTz/9FYB63Di9O25b+FqLXixJJYApG2bzOjw/oqR9a0pE1BQTQiIKrIwdKZCwEDDNgoCQJs/Lzo9hEidrvnbt3eNw8ZwZrsUnNgDWlStXjnzooYfuj4qK6t6u9dZRU1NTuWXLln/9/Oc//wSuxSF1AOpw3Q0CZq35tMkLJNTB5PyP5u8ooQ6QN0DACqwcU9DulSciasSEkIgCJ33H72EyLdF4pgIwbYATK2CSlkAwzW1SQnZeQua4EQBC4UoIQ+FamWwFYFmwYEHKzJkzR6WkpNwYExPTspUnV6impqbyyJEjB7dt27Y3IyPjC7gWhtQ3XrVwbSVTi/Qd+2AyaZxfJ2XBKWZDxEJAngUgWqPMPKwcu679fgsiIg8mhEQUOBnbCwEhyfOAVARZyIZUvw7ZEyuQvmMWTKb1nufl/e55hZLzKLLGTYArCQxVXSFo7C0EYAZgnjlzZs8HHnhg2PDhw0fEx8fr71PTCpWVlRcOHz78dU5Ozu5Vq1YdgWsxiB2eZLAOrmRQueqQvn0nTELvJr8LAMiYiszRHyEtNxqCbS5MUlqTv83Ksde3Rd2JiJrDhJCIAmfB9scgCKsB7IYsZyNzzAb3c2m7kiDK++DpLdsNp+NNiOa/AgAkx6fIGn8PXImfDZ7EMARNk0ILXFvZiFOmTOkxZ86c1Li4uKj+/fv3s9lsYdddd10/f9WsqampLCsrO3f69OlTJSUlF3JycvZv3LjxDFxJoDoRbIB6mFhJBF0JYgPS896DyTwOAOB0/BKi+QEAI12/j1QCs2Wo15xBV0Kc5irDHkIiChwmhETU8ZbkhqDKlgslWQIq4DQNhSDNdQ8xS9KbyBr7C3j2LFQSQyU5VBJC5bKgsccQnr0OBahOQ1HVwATPKl9ZdSnbwTjh2itQuRpUlzJU7EkElb0F07f/DSZhpuu7ykshCetgkr91z52U5W3IHDPxKv96RERXTWi+CBFRO7tkXQRPMghASkf2qCKYhB6ex+QieHrl6uCap3cZwCUAFQAualwVACrhORlEfX5wdeP3qNH4XH28XFXjz6jU+TnKz1COoVNOHnEAOOeuvknogexRRRCk+Z7HTBOwYMeiK/qbERG1ISaERNSxfrNrgtdCE0le5x4qlWXPdjSyXALv3roGeBZwKImhkrSVw5WslasuJXlTrsrG65LPayt9ypVrfL+LqtcqR9DVwtVDqJw84oQkf6+qv+t3WTl2HSR5necPYFqC9M9VyTARUeCZO7oCRGRgT36RAId9PYTGe1MJBYhqUPWgwZMQiuI5eIZ1ldM9hMaPDniGhUV4horVl/KcoLp8h46V4+N8h4p9h4yVx5RLgvdpI64hZ9Gk6iFU/S5RDfNRZZkACEmu4WPTeqTlDkX2xIoW/+2IiNoQE0Ii6jhO52r3ptSu/fnmYenEOk8BKcE9kCFLyuIL9YkeSjKmJHaCzyVCOxEUVOXVfOcOKkmhU+NzdfLoO//QxSQWQVa+lDwJ4dKJdUj/fDZk5LoSQiEJJmsmgHnN/cmIiNoDh4yJqGOk71wAE2a4vzZhMTLH7fYupNqGRTL7nuChtfjDgaarf2uhPS9QmRuodSlzDZV5gcpWMt6LRjzJoW9i2FhDSVVn9ZYyADLH7YYJiz1Pm+YiY/tcEBF1AK4yJqLAS9ueCpOwy+9q2ye/SIDk9Ay5rhzdkv+vTBofm/tci+xzQeNz9UdtabnREG0X3V8L4rVNjqZL35ELk2kCAFcvqSAP5SklRBRo7CEkosBakhsCk7DenQxKUglE8+wm5VyJkzKnLr+F393fkK/vPEB7M5e6B1CrJ9B/MgigcU6gUvcKzXOKRfNs11nGQON8wrVYktv0SD8ionbEhJCIAqvSuhoCUtxfi+JszUQJAJzSREjyYjhNd13hT9MaVvZNGLUu3zK+vYUt5zTd5fodJO39Bp8fUQKToJ47OBJVlmWt/jlERFeBQ8ZEFDgZO2YApk2eB6QsrByb3nEV6kQytmcCwgL318rRdkREAcAeQiIKjLRdSYBpreqR3YiwL9Yrbjiuv4VnUY0srcWTXyTov4CIqO0wISSiwBDl9VDOKZZQB6dptvcWMwa3dGIdIM+DBNffRBAS4HSs7+BaEZFBMCEkovaXvuP3UB9NJ0jzkT2qqKOq02mtHFPAo+2IqCNwDiERta/f7JoAWc51fy3J65A1hhsw+7Ngx1oIprkAlA27Jzbdo5GIqO2wh5CI2k9abjScTtWwp1TkdTQdaZMb0gGpCIBrKxqTaT3ScqM7tlJEFMyYEBJR+xFsa72OppNlzhtsieyJFZDl2e75hJ6j7YiI2gUTQiJqHy06mo50ZY7bDZO8wv01j7YjonbEOYRE1PYydqRAMu3zezQdtQyPtiOiAGAPIRG1rSW5IZBMm5o9mo5ahkfbEVEAMCEkorbVmqPpqHnPjyiBYFIvxOHRdkTU5pgQElHbydgxw71dCgBAysILo7Z1VHWCxsoxmwEpy/OAsADpO6d0XIWIKNgwISSitsGj6dqX62+Z7/6aR9sRURtiQkhEbYNH07Uv19F2s3m0HRG1ByaERHT1eDRdYPBoOyJqJ9x2hoiuDo+mC7z0nZvcezzyaDsiagPsISSiK5eWGw3ZqZo3yKPpAkKqn8ej7YioLTEhJKIrJ9jWAkISAB5NF0jK0XZuPNqOiK4OE0IiujILtj/Go+k6UOa43ZDlpe6vebQdEV0FziEkotbj0XSdB4+2I6I2wB5CImodHk3Xubj+9hUAlKPt1vNoOyJqLSaERNQ6VSGZXkfTmYR5PJquAz0/ogSQ1au6U3m0HRG1FhNCImq5jB0zAPkxzwNSFjJHf9RxFSIAjUfbmV72PCAscP1bERG1DBNCImoZHk3XuUXUpUOCZ+6gJK/m0XZE1FJMCImoZQRpLdRH00Gexy1mOpGlE+sgyHfxaDsiuhJMCImoeek7fu9eyQq4jqbjStbOZ+WYAkBKd39tMk1oPFaQiMgvbjtDRP7xaLquh0fbEVErsYeQiPRpHU0nN6Trv4A6BR5tR0StxISQiPRpHU2XPbGiYytFzcqeWAGTqOrFFZIg2lZ3XIWIqLNjQkhE2nyPpoO8lMOOXcgLo7Z5HW0HzOLRdkSkh3MIiagpHk0XPDJ27gIwEgCPtiMiXewhJCJvPJouuDhNPNqOiJrFhJCIvFVZlvFouiCSPaqIR9sRUXM4ZExEHhk7ZgCmTZ4HpCysHMtVxcFgwY61EExzPQ/Id7mOvCMiYg8hESme/CKBR9MFsaiG+Tzajoj0MCEkIhfXMWc8mi5Y8Wg7IvKDCSER8Wg6o1g5pgAmeHp9ebQdETViQkgU7H6za4Lf59M/HwmTaYn7a0leh5Vj17VvpajDZI7OggzP3EHZtBDpn4/0+5rm3kNE1OUxISQKZhk790GWc5Gx/UPN59Nyo2EyqYYNeTSdIYjifEiSa+V4c0fbZWz/0PUe2rkvkFUkosBiQkgUrDJ2pABIBQBIwgTNMjyazpieH1ECUVTtLennaDvPeycVabuS2rlmRNRBmBASBSuT4FlBKkhN9xHM2D6XR9MZWEuPtlO/dwQHVyUTBSkmhETBSnYmeb4QvBPCjB0pkARPj5Asb0PWmOUBqhl1FpENywF4bgIkYXVjz7KK6r2jvskgoqDChJAoWEkmT+Mtw9Oo82g6UiydWNfs0Xbq944kMyEkClJMCImClSD3cH9uMnkadd+j6QTTfB5NZ2DZo4ogy/NVj3gfbad+75hMTAiJghQTQqLAMrXgaiOq4T1Z+h5A49F0wgJPGSmLx5cRMsdsgCSv8zwgLHC9V+B57wCAjD5t9BNbEgc8WpUogJgQErUPdaMmqC7fr30vrfJX1jjKquE9k1yEJ79IgCSrV5Lm82g6ctM72s4kF7kfE65oyFgrFrRiQ+t9f/VxQEQtYu7oChAFEZPGR9OlS5dGiKKYYDabU00mU7Ig6E/MlySpSJblUw6HI1+SpIqIiIj/AJAbL1PjR6g++qmNnOSuiiyUwOlYD+VnS6iDIM/2OpoubVcSRCwEnElwivORPaqoxb85dR1pu5IgOlcDYhGcWOH+d146sQ5p22dDEnZBQIjnaDthhScNa/GikiaxsHfv3pj+/funWiyWFLPZ3FsUxRF+Xl/ndDq/dDgc39vt9oLS0tKC5OTkc43P+cZA87FARM3i3RbR1fFK/gCY8vLyYm6++ebpVqv1TlEUfywIQoif1zfL6XTmORyO90pLS7f07t27CJ4E0X+DuGBnrXvhiIzN3lvMSPPcp5H8ZtcESHKa1/OSvA5ZY+ZdTb2pk8rY/iEgTHF/LWMzBFM2Xhi1DQCQvnMBTMj0et7z3qjAytExOt9Z3YNnAmA6d+5cSlRU1Ayr1XqPKIo3Xk21nU7nSafT+V5lZeU78fHxu6AdA0wOia4QE0KiK6Nu/IRTp04lde/efYbVar1DFMXx7fVDnU7nAafT+V5ZWdl711133T7oJYdpudEQbRd1vs0GRNTPQ5VlFiCkQdm8Wk2WlyJzzO/b/BegjpexPdN7HqlbPiBlI8K+AVWWTV5Jo1pEfaiqZ7nJDVFpaemoqKioe0RRvFMUxbaac+jF6XR+L0nSJ3V1de9FRkZuRktvkohIF+cQErWO17yn6urqXzocjq969ep1NDQ09M/tmQwCgCiKN1qt1t9ee+21XzocjmP19fW/f+2118LhO89KtGoP7UmoA6QSVFoKAWEtmiSDUhEkaT6TwSC2cmw6JGk+IBX5PJMKCGtd7w2xyPVe0VARkgDvOX1iXl7eNfX19ZkOh+NMXFxcntVqfby9kkEAEEWxh8VimRMREfGO0+msamhoWHvw4MFEAKJP3YiohRgwRC3jNTG+oqJiRnh4+LNmszm5g+sFp9P5fW1t7XMREREvA5AAyEjffgtMwtaWfxfpI8hCNjJHf9Re9aROKH3nFJikNN3eQC2y9CNkjv0PACE7OzvskUceecJqtT4pimJU+1W0eZIk1TU0NLyQl5e3avLkyeVQYsGFPYZEzWBCSOSf1zYYpaWlo2JiYp4zm83jOrheTTgcju+qq6t/Gx0dvRmPfzYHZtvrMPnpKJFQB8gbIGAFVo4p0C5EhpCxIwUSFgKmWe55p03IgCwDzvr7sOrWdyorK2eFhYU9azabewe2sv6pbpDWAHCi6XAyEWlgQkikz90jePDgwWsHDhz4F4vFckdrv0lFrQP5Z2uQX1yN76vs2H2ySrdsUqwNSbEhuKVfJJJibEiKtbW60g6H4/OH/nH427/vq3oUJhOaJIWSVAKYsmE2r+OG1OTlyS8S4HDMBeQ0eK2Gb0wGZRnzfhj90quzB42/kkUiBaW1KCqvxxenLqOovA5F5fW6ZSf0j8LAuBAkxdowsk9Eq38Vh8PxXUVFxf/ExcV9CE9vIRNDIh1MCIma8hoePn/+/NSYmJg3WzMkVlRej4/QCrFYAAAdsElEQVQKKpCTfwHbjl+64oqkJoZjxpBYTP9BDFITw1v12sX/PoHln50BBNH1gMmUD8jZ7tXFRP5kbJ8LmNIgy655ppITj41OwOqZrZslsftkFXLyy7D5ULnfBNCfhAgLpqREY/qQWMwYEtuq19bX17+1Zs2aX6WlpdXAOzEkIhUmhETevDbEvXTp0oKIiIgVLXlhUXk9/rb3PDYfKkd+cXWbVywp1oYpKdF4cFhci3tMNnz9PR7eUPDPmtrqTLx0u+9WHUT+uGLh1x+MghD6ROZd/WcumNCrRS/cdvwScvIvYPPBcpRU2du0UiFmATNuiMXkgdGYNfQahJibXxvpcDj2fPnll/eMGTPmLLyHkYmoERNCIg93MrhkyZJuTz/99KtWq/Vnzb2opMqOpZ+cxss7v2+uaJuZMSQWy27vjZT40GbLsjGkK+COhS1btlwzZcqUt6xW623NvSi/uBqL//cUPiqoaP8awtVzmDk9CbOGdm+2rMPhOFVYWHhvcnLy13DFgXrRCZHhMSEkcnFvoZGbm5s4duzY98xm8w3+XlBR60D25yVY/lkx6hxSYGrp47HRPbBkUi8kRFj8lnM4HKWFhYXT2RhSC7h7yPfu3dvvpptu2tLcavqSKjsWf3AS6/acD0wNfaQmhiNzehIm9Iv0W87pdNZXVFT8onv37uvBBSdEXpgQEqkawO++++6H119//Raz2Rzv7wVZeeewYmtxmw+HXYkQs4BFtyYibVwCokP1T6N0Op31Fy5cuDchIeFDMCkkbUosiMXFxRN79OiR42/ubEWtAyu2nkVW3rkOuylSa2nPeVVV1ZLIyMgV8I4DxgIZGhNCMjp3A7hr165+w4YN2+YvGayodeCutUeuaqFIe0mIsGDTvIF+5xc6nc76wsLCqQMGDNgBJoXkzR0L33zzzQ+Tk5NzRVHUXeaeX1yNqa9+2yluitRCzALWzurX7DDyxYsXF8TGxr4MJoVEAHhSCRmbe5g4PT2927Bhw3L8JYMFpbUYtepQp0wGAdew3cS/foMN+y7olhFF0ZaUlLQhLy+vP1ynOignnJCxuZPB999/v+eAAQM2+EsGN+y7gFGrDnW6ZBAA6hwSZr91FEs/OeO3XGRk5IqCgoIxYBwQAXAFApERuZNBAJatW7eutdlsE/QKbz5UjjteP4IzlQ2Bqt8VcUgy/nmgHPUOGbcla4/0CYIQnpiYOL68vHz9nj17Ol+LToHmTgZ/9atfRcyfP3+j1WrVnT+79JMzeHxTIRxS5+5M23b8EvafrcGMG2JhFprmeoIgmKOjo6cOHTr0nZycnMtg7yAZHO+IyIjUyaD54sWLC6Ojo5foFV6+tRiLPzgVsMq1lRlDYrF+zgDdbTlqa2v/FRYWNgeAHVx9bFReN0ZVVVUvdevWbZ5WwTqHhHkbjvvtge6MUhPDsWnuQN1N3uvr6/c+8cQTU1955ZVL4DQKMjAmhGREQuNlPn78+O19+/Z9V69gV00GFTOGxGLTvIG6z1dUVCyNiYlZAVdSyHlUxqLec9NSWlr6WFxc3Eq9wvP/eSKgWyu1pdTEcOx6YojuzdHly5fXRkRE/Bq8OSID4xxCMhp3j8jHH3/cv0+fPq/rFdx8qLxLJ4OA63dYvrVY9/no6Oglx44dmwjADM6jMholGTQfPnx4dGxs7DK9gll557psMgi4FsDM23Bc9/lu3brNO3v27Fx4xwFjgQyFcwjJSJT/5M0ArGvWrHnFZrMN0SpYUFqLH7/8baefJ9USnx2tRGpiuO5WHJGRkf915syZt/Lz8xvAXhGjcM8bBGDJysp612w2X6dVcNvxS5j91tGAVq49HCqpQYhFwNjrtfcqDA0NHV5YWPj6gQMHlDhgLJChsIeQjEI9PGbes2fP6LCwsKlaBStqHZj66redYl+1tjL770dRUFqr+ZzZbB6wbNmyRwFYwN4RI/CKhaNHj95lsVg0b4yKyutx19ojAa1ce1r8gf4pKmazOf6FF154HK44EME4IINhQkhGovQOWoYMGaI7V+qutUdQVF4fuFoFQJ1DwtRXv0VFrUPz+djY2LRZs2Z1A7fgMAqld9Das2fPhVoFmnvPdFWz3zqqG9/XXHPN/6xZs6YnGAdkQEwIyQi8VhUfOXJkekhIyA+0Cmblneu0+wxeraLyeqRvKdJ8zmKxxL344ov/B+wlDHZevYMnTpx4QC8WFn9wSrdXuSurqHVg3oZjms+Jomi7++67M8BeQjIgJoRkFAIA4Z577ul2/fXX/06rgOsYLv0FGMFg3Z7zyC+u1nwuJibm0TVr1iTC1YvKhjA4uecO3nPPPd169uz5W61CJVX2Lr2IpDnbjl/C5kPlms9FR0c/8Je//CUR7CUkg2FCSMHOq0ckMzPzEYvF0l+r4NJPznTKkxfamt4JDqreETPYOxKMlH9LdSzEaRVM31IUVHNotfiLg/vuu28Z2FtOBsOEkIKd12rK+Pj4R7UKBXuPiNrmQ+W6E+ujo6MfWLRoUXcwIQxGvrHwuFah/OLqLrf59JXIL67W7SWMioqanp2dzV5CMhQmhBTM1D0i4rvvvjvYYrH01Cq4+IOTQd8jorb4f7X3VxRF0fbQQw/dCfYSBhuv3sGtW7eO0usdbO4M4GAy/90TunE/derUSeC+hGQgTAgp2CmnklhGjRp1t1aB/OJqrNtzPrC16mD+ekfi4uJ+BE6qD0bu3sHk5OTbtAr4e18EI38jAz169JgKxgEZCBNCCmZeq4ujo6MnahXKyS8LaKU6izW7tBvCiIiISRMnTlRvQQOwMezqvGIhJiZmslah7M/PBbRSnYFe/IeHh9/COCAjYUJIwUq9mER86aWX+oaFhaVqFTRSj4jatmOXNPeYE0XR9uyzz44H508FC69YyM7O7hsWFjZIq6De3NJgtvtkleZiMsYBGQ0TQgpm7tXFt956q+YQWUFpbVDutdYSdQ5JNwFITk6eDs6fCibuWJg0adKtWgX0EiMj2HxQ+6aQcUBGwoSQgpXXdjM9e/a8Q6uQUXsHFVsOX9R8PDIy8hZ4FpZwuKxrUw8Xi4mJiXdqFfr4SGVAK9WZbDms/f8A44CMhAkhBSOT6qP46KOPxoaGhmoOF285pJ0QGcVHBRWaqyytVmv3999/fwQ4XNbVqVcXCw8//PA1YWFhN2kVNPLN0bZjl3TjICcnJxWMAzIAJoQUrNxzpu68886BoijafAuUVNmx+2RV4GvWiVTUOrDtmPZRfcnJycPgvcKSjWHXpCQy4vTp0zVjoai8XvcEGyPwN32ib9++yeBKYzIAJoQUrNwJYWJi4kCtAkZPBhX5Z7UTgZCQkF7w3o+Qui4BgNirV69krSf13gNG8h+dM8x79OhxMxqH28GkkIIYE0IKRl7zB6Ojo/tpFTLqYhJf+8/WaD4eERHRD02HytgYdi2+saB5bCNjwdVLqqUxDtQLSwDGAQUhJoQUbNT/YQsAhNDQ0F5aBfUSIaPRSwZCQ0P7wtMQcv5U1+MbC2JoaKjmST2MBaDoonZC2BgH6hsjxgEFJSaEFIzcySAAs9Vq1Tyiq+RSQ0Ar1Vnp9YwAsME7GWRD2PWoY0FkLOhrJg64qISCHhNCCmYCAEGWZc3/xI2655ovrc2pAcBms10DNoTBgrHQjBbGAWOBghYTQgpG6lWxgtVqjdAqpHeovRH5+Vv4NoJsDLsWxkIrNBMH6vc+44CCDhNCClbuRtBsNms2guRRckm3h4jJYNfHWGihZuKAUycoqDEhpGDjexfP/7yvDvcg7LoYC22HcUBBjwkhBSv3f+D19fVlWgVCzHz7K5Jim+xVrGAD2PUxFlqIcUBGxv8FKOg5nU7NJZQJEZZAV6VLqaurM+5ZZkGKsdB6jAMyCiaEZFgJkdaOrkKnoJcMyLLMvUgMIjrU3NFV6HCMAzI6JoQU9CoqKk5qPZ4Uozs8ZCipieGaj1dVVZ0EIAe2NtSe9GIhJT400FXpdBgHZHRMCCnYyaWlpZqN4E3XhQW6Lp2SXjJQVVV1rvFTNoZdm/LvpxsLfXhzxDggw2NCSMFGVn2UAMgnTpwo0irIXhGXm67T7hlpTB4kuP6WbAy7HvW/md9YSE3kzRHjgIyOCSEFO2nLli0FWk+kJob7W1VoGFNSojUfP3v27Fl4GkE2hl2X8m8nbd++/YRWgZF9Igy/sIRxQEbHhJCCkbsBBCBt3Ljx/KVLl05rFdRrBIxiQr9IzUTA4XA0PPXUUzvg6RlRsDHsWtRJjLR69eri2traEq2CRo4FvYSYcUBGwoSQgpU7IQTgPHr06FatQvemdg9opTqbyTpJwIULF/afOHGiFoATTRtD6nqUWHCcPn36S60C04fEBrZGncj0ITGajzMOyEiYEFIw8koGATg+++yz3VoFR/bpZugtN2bpJMRfffXVVgAOeDeEbAy7HnUsOAA4d+zY8blWwSkp0YbdoHqGTjJ88ODB7XD93ZS/IeOAgpYxo5+Cme+iEicAx8KFC/fX1dVd9C0cYhYMO1SWEh+qO4fylVde2QnvhJC9I12PbyxIABzPPPPMHofD0WRvvRCzgAn9IwNZv04hKdamu8Bs/fr1Shz4JoVEQYcJIQUrpRFU/jO3Hz9+fKdWwXtTrwlkvToNvV6RsrKygvfee68UTXsIATaGXY16Pq0DgKOoqKj63Llze7UKT/+B8YaN9XrJy8vLT6xdu/YMGAdkEEwIKRipG0EnADsA+86dOzWHymYMidXdlDZYJURYsGRyT83nCgoKdqDxbwZPzwgbwK6rSSzk5+dv1yo497/iDLXaOMQsIG38tZrPHTt2TIkDdQ8h44CCFhNCClZeQ8YA7M8+++ye+vr6aq3CmdOTAli1jrfwR4m688VycnL+A6ABnEMYLJrEwmuvvbZDq2CIWTBULDw2uoduArx169Zd8NwYMQ4o6DEhpGCkHtZxN4KnTp26fOTIkU+0XjChX6TuEGqwSYq14bHRPTSfKy8vP/Hiiy8eg3ZDSF2PZiy89957JadPn9acQjFraHdD9JiHmAUs/FGi5nPl5eUnFi9evB+uGyPGARkCE0IKVr5zp+wAGhYtWvS23W63a71gySTtIdRgkzk9Sbd3cMWKFX+CqxH07SEE2Bh2VVqxYF+0aNFfjBwLy27vrds7+O9///tNeJJBxgEZgtjRFSBqJ6bGC3Dd+IgALMeOHXNOnjw5vHfv3jf4viAh0orvL9ux97TmqHJQSE0MR5bOkODJkyd333PPPesBVAOoAVAHT+8IG8Guy6S6RABmAJaDBw82/PSnP41LSEhI8X1BSnwoPj5SiTOVTRYjB4WECAveum8AzIKpyXNlZWWFo0ePzoYnDmrBOCADYA8hBSv1CQ3KZPoGAPX33nvv27W1tRVaL1oyqVfQ7kvob36Y3W63v/jii38HUN94cUFJ8NDqIawHUL9w4cL1er2Eq+++Pmj3JVx2ex/d323ZsmXPwxMHDeBwMRkEewjJCExQ9RJWVVUJ48aNs/Tv3/9m34LdbCJS4kORk18W8Eq2tz/f0QezhmpvsXHgwIEP5s6d+2+4ekWUnhGlMeRE+uCg9BIKaOwlPH78uGPatGlRiYmJg30LJ0Ra0c0m4uMjmvdOXdaC8ddikc7cwaKioi/uvffeDXDFwGW4egeV6ROMAwpqwXn7R+Sh7hlpgGsYtO7hhx/eXFZWVqj1ghlDYrHs9t4BrGL7e2x0DyzQ2V7Dbrfbn3rqqQ1o/NvA1TOi7h1kIxgc1CeWuGPhrrvu+ptej/mC8dfqLkDqiqakRPtdRa3qJa+D94ISxgEFPfYQkhGo51AJAMSqqiphwIABNTfffPN4rReMvT4SR87X4VBJTSDr2S4m9IvE33XmSwHArl273vnd7363Da4eEfaKBC+T6qPQeJmrqqpMej3mAHBbchR2FFah6GJ9oOrZLpJibfj0F4MRYtHuB/n222+33n///f+EdxzUg0PGZBDsISQjUG/Kq9z91z7yyCP/OXDgwMd6L1o7qx9G9okIUBXbR1KsDZvmDdSdL3X69Ol948aNWwtX41eLpgtJ2AgGD98Nqt29hFOmTNl4+vTpfVovCjEL2DRvoO4xh11BdKgZHz4ySHd+cGVlZfF99933V3jiQJlHy2SQDIMJIQU73wn1SiNYC6BmypQpq4uLiw9rvTDELODDR1K6bFKYFGtrthGcNm3aCnj+HuqeQSaEwUf5t1RiQbk5qgFQe8cddyyvrKws1nqhklB1xaQwOtSM9fcP0D2vuK6uriY9Pf25ffv2XYDnpkhJCDltggyDCSEZhW8vYS2A2nPnzlVOnTr1ucuXL5/XelF0qBm5vxzc5eZRTegXiX0ZN/ptBOfOnfvMgQMHLsCVENSAq4uNwLeX0H0zsH///gtz585dWldXpzlPIiU+FLueuKFL3SAlxdqw64khmJISrVvmr3/96wtr1649Cu1ecsYBGQbnEJLRNJlPWFpa6iwuLj48derUCWazuclOtWbBhGmDY5AQYcUH314MdH1b7bHRPfD3+wagm007vO12u/1Pf/rTH1evXv0NPPOlquHpIWRDGPx85xOaAIgFBQV1NputaPTo0WNFUWzyBupmE3H/D7vjeFl9p59fO6FfJHJ/+QP0jNbv1fz000/fnjNnzgfwxMFleC+sYu8gGQYTQjIKpQGUoZEU7t+/vzo6Ovrs6NGjNReZAMCwXt0woX8Uthy6iDqHpFesQ2VOT8KzU3vrLiABgM2bN78xf/78XHg3gkoPodI7SMHL982hXmQi5ubmlt100031gwcP/qHWi82CCT+78RqEWAR8drSyvet6RR4b3QPvPDhQdwEJABw5cmTniBEjXoZ+HHAjajIUJoRkZF6J4aefflo6bNgwe3JycqreC5JibZiV2h37z1Z3qlWXqYnhWD8nWXefQcXWrVvfnTZt2ka4egSr4GkEuZjEuNS9hSYAwsaNGwt//OMfh/Xu3bvJKSaKsddHYmSfCBz+vhYlVZp7WwdcdKgZmdOT8PvJvfyWO3ny5P6xY8f+6fLly5fgiYNqeLabYRyQ4TAhJFI1hOvXrz9+zTXXnL355puHaw2ZAa5GZ+7w+E7RGCZEWPDiT/vi5Z/1bXbCf05Ozut33nnnO/BOBn2HitkIGodWN7K7t/CNN9443L9//4pBgwal6sVC/+4heGxUDyREWPHVmcu43NBxncsLxl+LTfMGYmzfSL/lvvrqq/83ePDgP2skg77bLREZChNCMiL18LH6MRMA4cMPPzxbWlp6cNy4cUNDQkLC9L6J0hgmxYbgi5NVAW0Mo0PNWDK5JzbMScawXt38lq2rq6v5wx/+sOzxxx/fBs8JDEpDqG4EOW/QmHz/zd0955s2bTpVW1v77fjx40dqza9VDOvVDb8emwCLKCD/bE1Ap1TMGBKLDx8ZhFlDu/sdIrbb7fZ333133aRJk95G0zjwnTLBGyMyHP2JRkTBS2nwRLiO8AoBEAagG4CIxit88ODB3T/++OOnevbsOai5b1jnkPDyzu/xt73nkV9c3W4VT4q1YcaQWCyZ1LNFZy5XVFScnTNnzh/ff//90/D0DPoOkTnACfRGpY4FC7xjIbLxY/i0adN6v/HGG/8TFxfXp7lvWFJlx4qtxdiw70K79Z6HmAXMuCEWvxjVAxP6+e8RBFw3RX/84x9f+MMf/vA1vJPBKjQdKuaNERkSE0IyKr2GMByuhLAbgPD4+PjIDz744OFhw4bd2tJvXFRej48KKpCTfwHbjl+66oqmJoZjxpBYTP9BDFITw1v8uqKiogO333575jfffKNsLePbI8LtNQjwOesbgA2uOOimusIHDx7cfdOmTb9OTk7WXGyiZffJKuTkl+GjggoUlNZeVSUTIiyYkhKN6UNiMWNIbItfd/78+ZMPPfTQnxtvipQ48F1dz+2WyPCYEJKRaTWEofAkheGNV+ibb77547vvvnt2WFhYVGt+QEWtA5sPXcT+s9XIL65G/tkaVNQ6dMsnRFiQEh+K1MRwDIwLxZSU6FZvBmy32+15eXn/vu222/4BV9Kn9IgoDaAyPMYeEVL4xkIIXLGgTgrDAITm5eU9MHLkyKkWi0V3CFlLQWktNh8qx/6zNSgqr8fuk1V+y4/sE4GkWBtS4kMxeWDUFe1/uHfv3s8efPDBt3xuitRx4NszyBX2ZFhMCMno1A2hGd5JodJLEg4gdNCgQbGrVq2adsstt0xrbWOoJb+4GhV1TncS2Bby8/M//9WvfvWPnTt3fo/G01jgvaWGegNqZREJG0EC/N8gKXEQDiD0Jz/5Sc/MzMwHW9NbqKei1oH8s649DVsy/NsShYWFB5cvX/6PV1555Tt4TmPxjQOtHnLeGJFhMSEkapoUWuE9lyq88fNQACGjR4+Oy8rK+tnw4cN/1EH1baKwsPDgsmXL1r/66qvH4DmJpVp11cCzgITDxKRH7wZJmU7hTgoB2NLT0welp6fP7tWrl+72NIFUWlp66vXXX9/w9NNPfwVPHNSgaRxonVXMWCBDY0JI5OK70MQKV2MYpnHZANjuvffe3s8888ystugluVKlpaWnVq1a9ffnnnvuAFzJnroRVBpC5Tgu9TnFTAZJj3qjags8N0hKb6FvLFhXrlw58qGHHro/KirK/0aY7aSmpqZyy5Yt//r5z3/+CTznlSs9g0ocqIeIfffcZCyQ4TEhJPJQn15ihmfYTGkMlUYwtPExKwDr1KlTr/3v//7v/xo+fPjNgegpuXjx4rkDBw589dZbb+167bXXjsNzPrP7XFp4ekLUvSHq0xfYAJI/6hskEZ4bJCUO1B+VWLAsWLAgZebMmaNSUlJujImJubY9K1hTU1N55MiRg9u2bdubkZHxBTxxoL4pUn/0jQPeFBGpMCEk8uZ1pB28ewuVxFBpBJXLClfyKKakpEQ++eSTw8eOHXtz3759b2iLuYYAcPr06YI9e/Z8/eqrr+756KOPvoerQbPD0yuoTgaVz5WFIxwaoyvhGwvq3kJ1LCjxYGt83gzAPHPmzJ4PPPDAsOHDh4+Ij4/v3RYVqqysvHD48OGvc3Jydq9ateoIPHGgdVOkxIJvryBviog0MCEkakp9pJ3SQ6I0huoGUSsptCiviYuLC1m0aFHqDTfc0Kd7o7i4uN7+NrsGXMPA1dXVlceOHTt+7Nixs6tWrcovKCi4DFdDpuwZ6JsMqpNA9fCwspUGk0G6EuqkUN1z7nuTpMSBOil0x8KUKVN6zJkzJzUuLi6qf//+/Ww2W9h1113Xz98PrqmpqSwrKzt3+vTpUyUlJRdycnL2b9y48Qw8SZ2SCDbAe5hYSQTrVc8xDoiawYSQSJ9vD4lvYqg0iDbVY0piaFZdgupSvqf6ZwCeBkpprCTVpZUIqofH1Emg8pzWsBgbQboSyntUef+a4R0LNrQsFpQ4UseBbyz4xoE6FtRx4IDn/a7cGClxoO4Z940DJoNEOpgQEvmnbrh8E0NlONn3sqgupTFUGkLfpFCrEVQng+pE0LdHRP25ukeQDSC1B61YUHoC1TdK/mJBHQdaN0gK5f2rJIJKLGjFgfpSnlPHAXsFiVqACSFRy+glhurk0KJxqRNC394R9cGresmgMjTm2xiqH1N6TtSvZQNI7UF9I6NO7NQ94ur3vnr4WOvmyDcpbGnPoG8MqJNA30QQYCwQNYsJIVHLqRtD3wZRSfjM8O45UT+mlFNeq44/fwmhujF0wrvhU/cGsgGkQNFLDH1jwfdS3xjp9RKq38/qhNA3FrTiQH3aCG+KiFqBCSFR6/kmhuoETz1PSvT5XPAp6xt/vg2herhMq9HTGhZmA0iBpBcLWgmibyKojgc1vXm0erGgdTPEOCBqJSaERFdHq0H0bRh9k0CtCfWAd0Po2yj6Ps7GjzoTk8ZH3xsl3zjQuzGSfS7fGyXfWIDGRyJqJSaERG1Hr1H0XUTiL+60kj29HkA2ftQZ6cWBv8+16L3/mQQStQMmhETtQ2trGb2vfeklfWz4qCvSi4XWxIHv14wFojbGhJAocFoTb2zwKJi1NBYYB0RERERERERERERERERERERERERERERERERERERERERERERERERERERERERERERERERERERERERERERERERERERERERERERERERERERERERERFfo/wM/ih7rk1ZkRgAAAABJRU5ErkJggg==;" vertex="1" parent="1">
          <mxGeometry x="206.11" y="460" width="405.78" height="270" as="geometry" />
        </mxCell>
        <mxCell id="_npxwFRHUUskg1cep9gv-128" value="" style="image;aspect=fixed;html=1;points=[];align=center;fontSize=12;image=img/lib/azure2/security/Key_Vaults.svg;" vertex="1" parent="1">
          <mxGeometry x="310" y="570" width="20" height="20" as="geometry" />
        </mxCell>
        <mxCell id="_npxwFRHUUskg1cep9gv-129" value="" style="image;aspect=fixed;html=1;points=[];align=center;fontSize=12;image=img/lib/azure2/security/Key_Vaults.svg;" vertex="1" parent="1">
          <mxGeometry x="350" y="670" width="20" height="20" as="geometry" />
        </mxCell>
        <mxCell id="_npxwFRHUUskg1cep9gv-130" value="" style="image;aspect=fixed;html=1;points=[];align=center;fontSize=12;image=img/lib/azure2/security/Key_Vaults.svg;" vertex="1" parent="1">
          <mxGeometry x="399" y="500" width="20" height="20" as="geometry" />
        </mxCell>
        <mxCell id="_npxwFRHUUskg1cep9gv-131" value="" style="image;aspect=fixed;html=1;points=[];align=center;fontSize=12;image=img/lib/azure2/security/Key_Vaults.svg;" vertex="1" parent="1">
          <mxGeometry x="490" y="570" width="20" height="20" as="geometry" />
        </mxCell>
        <mxCell id="_npxwFRHUUskg1cep9gv-132" value="" style="image;aspect=fixed;html=1;points=[];align=center;fontSize=12;image=img/lib/azure2/security/Key_Vaults.svg;" vertex="1" parent="1">
          <mxGeometry x="460" y="670" width="20" height="20" as="geometry" />
        </mxCell>
        <mxCell id="_npxwFRHUUskg1cep9gv-134" style="edgeStyle=orthogonalEdgeStyle;rounded=0;orthogonalLoop=1;jettySize=auto;html=1;curved=1;strokeWidth=3;strokeColor=#FF3333;flowAnimation=1;" edge="1" parent="1" source="SQpLpG3qjown2OBQIWGg-3" target="_npxwFRHUUskg1cep9gv-128">
          <mxGeometry relative="1" as="geometry" />
        </mxCell>
        <mxCell id="_npxwFRHUUskg1cep9gv-135" style="edgeStyle=orthogonalEdgeStyle;rounded=0;orthogonalLoop=1;jettySize=auto;html=1;entryX=0.5;entryY=0.5;entryDx=0;entryDy=0;entryPerimeter=0;curved=1;strokeWidth=3;strokeColor=#009999;flowAnimation=1;" edge="1" parent="1" source="SQpLpG3qjown2OBQIWGg-3" target="_npxwFRHUUskg1cep9gv-131">
          <mxGeometry relative="1" as="geometry" />
        </mxCell>
        <mxCell id="_npxwFRHUUskg1cep9gv-136" style="edgeStyle=orthogonalEdgeStyle;rounded=1;orthogonalLoop=1;jettySize=auto;html=1;curved=0;strokeWidth=3;strokeColor=#1A1A1A;flowAnimation=1;" edge="1" parent="1" source="SQpLpG3qjown2OBQIWGg-3">
          <mxGeometry relative="1" as="geometry">
            <mxPoint x="470" y="670" as="targetPoint" />
            <Array as="points">
              <mxPoint x="470" y="187" />
            </Array>
          </mxGeometry>
        </mxCell>
        <mxCell id="_npxwFRHUUskg1cep9gv-137" style="edgeStyle=orthogonalEdgeStyle;rounded=1;orthogonalLoop=1;jettySize=auto;html=1;entryX=0.35;entryY=0.05;entryDx=0;entryDy=0;entryPerimeter=0;curved=0;strokeWidth=3;strokeColor=#004C99;flowAnimation=1;" edge="1" parent="1" source="SQpLpG3qjown2OBQIWGg-3" target="_npxwFRHUUskg1cep9gv-129">
          <mxGeometry relative="1" as="geometry">
            <Array as="points">
              <mxPoint x="340" y="187" />
              <mxPoint x="340" y="660" />
              <mxPoint x="357" y="660" />
            </Array>
          </mxGeometry>
        </mxCell>
        <mxCell id="_npxwFRHUUskg1cep9gv-138" style="edgeStyle=orthogonalEdgeStyle;rounded=0;orthogonalLoop=1;jettySize=auto;html=1;strokeWidth=3;strokeColor=#994C00;flowAnimation=1;" edge="1" parent="1" source="SQpLpG3qjown2OBQIWGg-3" target="_npxwFRHUUskg1cep9gv-130">
          <mxGeometry relative="1" as="geometry">
            <Array as="points">
              <mxPoint x="404" y="430" />
              <mxPoint x="404" y="430" />
            </Array>
          </mxGeometry>
        </mxCell>
        <mxCell id="_npxwFRHUUskg1cep9gv-139" value="" style="group;strokeColor=default;rotation=90;" vertex="1" connectable="0" parent="1">
          <mxGeometry x="90" y="407" width="140" height="87" as="geometry" />
        </mxCell>
        <mxCell id="_npxwFRHUUskg1cep9gv-140" value="" style="verticalLabelPosition=bottom;verticalAlign=top;html=1;shape=mxgraph.basic.rounded_frame;dx=3;whiteSpace=wrap;rotation=180;strokeWidth=3;strokeColor=#003300;" vertex="1" parent="_npxwFRHUUskg1cep9gv-139">
          <mxGeometry x="27" y="-26" width="87" height="140" as="geometry" />
        </mxCell>
        <mxCell id="_npxwFRHUUskg1cep9gv-141" value="" style="image;aspect=fixed;html=1;points=[];align=center;fontSize=12;image=img/lib/azure2/app_services/App_Services.svg;rotation=0;" vertex="1" parent="_npxwFRHUUskg1cep9gv-139">
          <mxGeometry x="40" y="-16" width="28" height="28" as="geometry" />
        </mxCell>
        <mxCell id="_npxwFRHUUskg1cep9gv-142" value="" style="image;sketch=0;aspect=fixed;html=1;points=[];align=center;fontSize=12;image=img/lib/mscae/Application_Gateway.svg;rotation=0;" vertex="1" parent="_npxwFRHUUskg1cep9gv-139">
          <mxGeometry x="38" y="26" width="30" height="30" as="geometry" />
        </mxCell>
        <mxCell id="_npxwFRHUUskg1cep9gv-143" value="" style="image;aspect=fixed;html=1;points=[];align=center;fontSize=12;image=img/lib/azure2/networking/Front_Doors.svg;rotation=0;" vertex="1" parent="_npxwFRHUUskg1cep9gv-139">
          <mxGeometry x="36" y="71" width="35.04" height="30.91" as="geometry" />
        </mxCell>
        <mxCell id="_npxwFRHUUskg1cep9gv-144" value="" style="image;aspect=fixed;html=1;points=[];align=center;fontSize=12;image=img/lib/azure2/app_services/App_Service_Certificates.svg;rotation=0;" vertex="1" parent="_npxwFRHUUskg1cep9gv-139">
          <mxGeometry x="77" y="-15" width="28.52" height="26" as="geometry" />
        </mxCell>
        <mxCell id="_npxwFRHUUskg1cep9gv-145" value="" style="image;aspect=fixed;html=1;points=[];align=center;fontSize=12;image=img/lib/azure2/app_services/App_Service_Certificates.svg;rotation=0;" vertex="1" parent="_npxwFRHUUskg1cep9gv-139">
          <mxGeometry x="77" y="28" width="28.52" height="26" as="geometry" />
        </mxCell>
        <mxCell id="_npxwFRHUUskg1cep9gv-146" value="" style="image;aspect=fixed;html=1;points=[];align=center;fontSize=12;image=img/lib/azure2/app_services/App_Service_Certificates.svg;rotation=0;" vertex="1" parent="_npxwFRHUUskg1cep9gv-139">
          <mxGeometry x="77" y="73" width="28.52" height="26" as="geometry" />
        </mxCell>
        <mxCell id="_npxwFRHUUskg1cep9gv-147" value="" style="group;strokeColor=default;rotation=90;" vertex="1" connectable="0" parent="1">
          <mxGeometry x="600" y="400" width="140" height="87" as="geometry" />
        </mxCell>
        <mxCell id="_npxwFRHUUskg1cep9gv-148" value="" style="verticalLabelPosition=bottom;verticalAlign=top;html=1;shape=mxgraph.basic.rounded_frame;dx=3;whiteSpace=wrap;rotation=180;strokeWidth=3;strokeColor=#003300;" vertex="1" parent="_npxwFRHUUskg1cep9gv-147">
          <mxGeometry x="27" y="-26" width="87" height="140" as="geometry" />
        </mxCell>
        <mxCell id="_npxwFRHUUskg1cep9gv-149" value="" style="image;aspect=fixed;html=1;points=[];align=center;fontSize=12;image=img/lib/azure2/app_services/App_Services.svg;rotation=0;" vertex="1" parent="_npxwFRHUUskg1cep9gv-147">
          <mxGeometry x="40" y="-16" width="28" height="28" as="geometry" />
        </mxCell>
        <mxCell id="_npxwFRHUUskg1cep9gv-150" value="" style="image;sketch=0;aspect=fixed;html=1;points=[];align=center;fontSize=12;image=img/lib/mscae/Application_Gateway.svg;rotation=0;" vertex="1" parent="_npxwFRHUUskg1cep9gv-147">
          <mxGeometry x="38" y="26" width="30" height="30" as="geometry" />
        </mxCell>
        <mxCell id="_npxwFRHUUskg1cep9gv-151" value="" style="image;aspect=fixed;html=1;points=[];align=center;fontSize=12;image=img/lib/azure2/networking/Front_Doors.svg;rotation=0;" vertex="1" parent="_npxwFRHUUskg1cep9gv-147">
          <mxGeometry x="36" y="71" width="35.04" height="30.91" as="geometry" />
        </mxCell>
        <mxCell id="_npxwFRHUUskg1cep9gv-152" value="" style="image;aspect=fixed;html=1;points=[];align=center;fontSize=12;image=img/lib/azure2/app_services/App_Service_Certificates.svg;rotation=0;" vertex="1" parent="_npxwFRHUUskg1cep9gv-147">
          <mxGeometry x="77" y="-15" width="28.52" height="26" as="geometry" />
        </mxCell>
        <mxCell id="_npxwFRHUUskg1cep9gv-153" value="" style="image;aspect=fixed;html=1;points=[];align=center;fontSize=12;image=img/lib/azure2/app_services/App_Service_Certificates.svg;rotation=0;" vertex="1" parent="_npxwFRHUUskg1cep9gv-147">
          <mxGeometry x="77" y="28" width="28.52" height="26" as="geometry" />
        </mxCell>
        <mxCell id="_npxwFRHUUskg1cep9gv-154" value="" style="image;aspect=fixed;html=1;points=[];align=center;fontSize=12;image=img/lib/azure2/app_services/App_Service_Certificates.svg;rotation=0;" vertex="1" parent="_npxwFRHUUskg1cep9gv-147">
          <mxGeometry x="77" y="73" width="28.52" height="26" as="geometry" />
        </mxCell>
        <mxCell id="_npxwFRHUUskg1cep9gv-155" style="edgeStyle=orthogonalEdgeStyle;rounded=0;orthogonalLoop=1;jettySize=auto;html=1;entryX=1;entryY=0.45;entryDx=0;entryDy=0;entryPerimeter=0;strokeWidth=2;strokeColor=#999999;flowAnimation=1;curved=1;" edge="1" parent="1">
          <mxGeometry relative="1" as="geometry">
            <mxPoint x="442.9000000000001" y="357.3649636516643" as="sourcePoint" />
            <mxPoint x="627" y="436" as="targetPoint" />
            <Array as="points">
              <mxPoint x="443" y="435" />
              <mxPoint x="548" y="435" />
              <mxPoint x="548" y="436" />
            </Array>
          </mxGeometry>
        </mxCell>
        <mxCell id="_npxwFRHUUskg1cep9gv-157" style="edgeStyle=orthogonalEdgeStyle;rounded=0;orthogonalLoop=1;jettySize=auto;html=1;entryX=0;entryY=0.543;entryDx=0;entryDy=0;entryPerimeter=0;strokeWidth=2;strokeColor=#B266FF;curved=1;flowAnimation=1;exitX=0.573;exitY=0.953;exitDx=0;exitDy=0;exitPerimeter=0;" edge="1" parent="1" source="_npxwFRHUUskg1cep9gv-6" target="_npxwFRHUUskg1cep9gv-140">
          <mxGeometry relative="1" as="geometry">
            <mxPoint x="387.29999999999995" y="372.3649636516643" as="sourcePoint" />
            <mxPoint x="221.99800000000005" y="441.05999999999995" as="targetPoint" />
            <Array as="points">
              <mxPoint x="369" y="445" />
            </Array>
          </mxGeometry>
        </mxCell>
        <mxCell id="_npxwFRHUUskg1cep9gv-224" value="" style="whiteSpace=wrap;html=1;aspect=fixed;strokeColor=#003300;strokeWidth=2;fillColor=none;" vertex="1" parent="1">
          <mxGeometry x="410" y="482.94555555555553" width="22.101851851851855" height="22.101851851851855" as="geometry" />
        </mxCell>
        <mxCell id="_npxwFRHUUskg1cep9gv-225" value="" style="group;strokeColor=default;rotation=90;strokeWidth=0;" vertex="1" connectable="0" parent="1">
          <mxGeometry x="425.43408360128615" y="487.47222222222223" width="37.041800643086816" height="13.055555555555555" as="geometry" />
        </mxCell>
        <mxCell id="_npxwFRHUUskg1cep9gv-226" value="" style="image;aspect=fixed;html=1;points=[];align=center;fontSize=12;image=img/lib/azure2/app_services/App_Services.svg;rotation=0;" vertex="1" parent="_npxwFRHUUskg1cep9gv-225">
          <mxGeometry x="-11.646427474260438" y="-2.889216466802674" width="3.3726851851851856" height="3.3726851851851856" as="geometry" />
        </mxCell>
        <mxCell id="_npxwFRHUUskg1cep9gv-227" value="" style="image;sketch=0;aspect=fixed;html=1;points=[];align=center;fontSize=12;image=img/lib/mscae/Application_Gateway.svg;rotation=0;" vertex="1" parent="_npxwFRHUUskg1cep9gv-225">
          <mxGeometry x="-12.175596054875964" y="3.413465525534492" width="3.6135912698412707" height="3.6135912698412707" as="geometry" />
        </mxCell>
        <mxCell id="_npxwFRHUUskg1cep9gv-228" value="" style="image;aspect=fixed;html=1;points=[];align=center;fontSize=12;image=img/lib/azure2/networking/Front_Doors.svg;rotation=0;" vertex="1" parent="_npxwFRHUUskg1cep9gv-225">
          <mxGeometry x="-12.70476463549149" y="10.166339088752881" width="4.220674603174603" height="3.723203538359789" as="geometry" />
        </mxCell>
        <mxCell id="_npxwFRHUUskg1cep9gv-229" value="" style="image;aspect=fixed;html=1;points=[];align=center;fontSize=12;image=img/lib/azure2/app_services/App_Service_Certificates.svg;rotation=0;" vertex="1" parent="_npxwFRHUUskg1cep9gv-225">
          <mxGeometry x="-1.8568087328732052" y="-2.739152609842265" width="3.4353207671957673" height="3.1317791005291014" as="geometry" />
        </mxCell>
        <mxCell id="_npxwFRHUUskg1cep9gv-230" value="" style="image;aspect=fixed;html=1;points=[];align=center;fontSize=12;image=img/lib/azure2/app_services/App_Service_Certificates.svg;rotation=0;" vertex="1" parent="_npxwFRHUUskg1cep9gv-225">
          <mxGeometry x="-1.8568087328732052" y="3.713593239455309" width="3.4353207671957673" height="3.1317791005291014" as="geometry" />
        </mxCell>
        <mxCell id="_npxwFRHUUskg1cep9gv-231" value="" style="image;aspect=fixed;html=1;points=[];align=center;fontSize=12;image=img/lib/azure2/app_services/App_Service_Certificates.svg;rotation=0;" vertex="1" parent="_npxwFRHUUskg1cep9gv-225">
          <mxGeometry x="-1.8568087328732052" y="10.466466802673699" width="3.4353207671957673" height="3.1317791005291014" as="geometry" />
        </mxCell>
        <mxCell id="_npxwFRHUUskg1cep9gv-175" value="" style="whiteSpace=wrap;html=1;aspect=fixed;strokeColor=#003300;strokeWidth=1;fillColor=none;" vertex="1" parent="1">
          <mxGeometry x="506" y="551.9455555555555" width="22.101851851851855" height="22.101851851851855" as="geometry" />
        </mxCell>
        <mxCell id="_npxwFRHUUskg1cep9gv-158" value="" style="group;strokeColor=default;rotation=90;strokeWidth=0;" vertex="1" connectable="0" parent="1">
          <mxGeometry x="521.4340836012861" y="557.4722222222222" width="37.041800643086816" height="13.055555555555555" as="geometry" />
        </mxCell>
        <mxCell id="_npxwFRHUUskg1cep9gv-160" value="" style="image;aspect=fixed;html=1;points=[];align=center;fontSize=12;image=img/lib/azure2/app_services/App_Services.svg;rotation=0;" vertex="1" parent="_npxwFRHUUskg1cep9gv-158">
          <mxGeometry x="-11.646427474260438" y="-2.889216466802674" width="3.3726851851851856" height="3.3726851851851856" as="geometry" />
        </mxCell>
        <mxCell id="_npxwFRHUUskg1cep9gv-161" value="" style="image;sketch=0;aspect=fixed;html=1;points=[];align=center;fontSize=12;image=img/lib/mscae/Application_Gateway.svg;rotation=0;" vertex="1" parent="_npxwFRHUUskg1cep9gv-158">
          <mxGeometry x="-12.175596054875964" y="3.413465525534492" width="3.6135912698412707" height="3.6135912698412707" as="geometry" />
        </mxCell>
        <mxCell id="_npxwFRHUUskg1cep9gv-162" value="" style="image;aspect=fixed;html=1;points=[];align=center;fontSize=12;image=img/lib/azure2/networking/Front_Doors.svg;rotation=0;" vertex="1" parent="_npxwFRHUUskg1cep9gv-158">
          <mxGeometry x="-12.70476463549149" y="10.166339088752881" width="4.220674603174603" height="3.723203538359789" as="geometry" />
        </mxCell>
        <mxCell id="_npxwFRHUUskg1cep9gv-163" value="" style="image;aspect=fixed;html=1;points=[];align=center;fontSize=12;image=img/lib/azure2/app_services/App_Service_Certificates.svg;rotation=0;" vertex="1" parent="_npxwFRHUUskg1cep9gv-158">
          <mxGeometry x="-1.8568087328732052" y="-2.739152609842265" width="3.4353207671957673" height="3.1317791005291014" as="geometry" />
        </mxCell>
        <mxCell id="_npxwFRHUUskg1cep9gv-164" value="" style="image;aspect=fixed;html=1;points=[];align=center;fontSize=12;image=img/lib/azure2/app_services/App_Service_Certificates.svg;rotation=0;" vertex="1" parent="_npxwFRHUUskg1cep9gv-158">
          <mxGeometry x="-1.8568087328732052" y="3.713593239455309" width="3.4353207671957673" height="3.1317791005291014" as="geometry" />
        </mxCell>
        <mxCell id="_npxwFRHUUskg1cep9gv-165" value="" style="image;aspect=fixed;html=1;points=[];align=center;fontSize=12;image=img/lib/azure2/app_services/App_Service_Certificates.svg;rotation=0;" vertex="1" parent="_npxwFRHUUskg1cep9gv-158">
          <mxGeometry x="-1.8568087328732052" y="10.466466802673699" width="3.4353207671957673" height="3.1317791005291014" as="geometry" />
        </mxCell>
        <mxCell id="_npxwFRHUUskg1cep9gv-215" value="" style="whiteSpace=wrap;html=1;aspect=fixed;strokeColor=#003300;strokeWidth=1;fillColor=none;" vertex="1" parent="1">
          <mxGeometry x="460" y="688.9455555555555" width="22.101851851851855" height="22.101851851851855" as="geometry" />
        </mxCell>
        <mxCell id="_npxwFRHUUskg1cep9gv-216" value="" style="group;strokeColor=default;rotation=90;strokeWidth=0;" vertex="1" connectable="0" parent="1">
          <mxGeometry x="475.43408360128615" y="693.4722222222222" width="37.041800643086816" height="13.055555555555555" as="geometry" />
        </mxCell>
        <mxCell id="_npxwFRHUUskg1cep9gv-217" value="" style="image;aspect=fixed;html=1;points=[];align=center;fontSize=12;image=img/lib/azure2/app_services/App_Services.svg;rotation=0;" vertex="1" parent="_npxwFRHUUskg1cep9gv-216">
          <mxGeometry x="-11.646427474260438" y="-2.889216466802674" width="3.3726851851851856" height="3.3726851851851856" as="geometry" />
        </mxCell>
        <mxCell id="_npxwFRHUUskg1cep9gv-218" value="" style="image;sketch=0;aspect=fixed;html=1;points=[];align=center;fontSize=12;image=img/lib/mscae/Application_Gateway.svg;rotation=0;" vertex="1" parent="_npxwFRHUUskg1cep9gv-216">
          <mxGeometry x="-12.175596054875964" y="3.413465525534492" width="3.6135912698412707" height="3.6135912698412707" as="geometry" />
        </mxCell>
        <mxCell id="_npxwFRHUUskg1cep9gv-219" value="" style="image;aspect=fixed;html=1;points=[];align=center;fontSize=12;image=img/lib/azure2/networking/Front_Doors.svg;rotation=0;" vertex="1" parent="_npxwFRHUUskg1cep9gv-216">
          <mxGeometry x="-12.70476463549149" y="10.166339088752881" width="4.220674603174603" height="3.723203538359789" as="geometry" />
        </mxCell>
        <mxCell id="_npxwFRHUUskg1cep9gv-220" value="" style="image;aspect=fixed;html=1;points=[];align=center;fontSize=12;image=img/lib/azure2/app_services/App_Service_Certificates.svg;rotation=0;" vertex="1" parent="_npxwFRHUUskg1cep9gv-216">
          <mxGeometry x="-1.8568087328732052" y="-2.739152609842265" width="3.4353207671957673" height="3.1317791005291014" as="geometry" />
        </mxCell>
        <mxCell id="_npxwFRHUUskg1cep9gv-221" value="" style="image;aspect=fixed;html=1;points=[];align=center;fontSize=12;image=img/lib/azure2/app_services/App_Service_Certificates.svg;rotation=0;" vertex="1" parent="_npxwFRHUUskg1cep9gv-216">
          <mxGeometry x="-1.8568087328732052" y="3.713593239455309" width="3.4353207671957673" height="3.1317791005291014" as="geometry" />
        </mxCell>
        <mxCell id="_npxwFRHUUskg1cep9gv-222" value="" style="image;aspect=fixed;html=1;points=[];align=center;fontSize=12;image=img/lib/azure2/app_services/App_Service_Certificates.svg;rotation=0;" vertex="1" parent="_npxwFRHUUskg1cep9gv-216">
          <mxGeometry x="-1.8568087328732052" y="10.466466802673699" width="3.4353207671957673" height="3.1317791005291014" as="geometry" />
        </mxCell>
        <mxCell id="_npxwFRHUUskg1cep9gv-197" value="" style="whiteSpace=wrap;html=1;aspect=fixed;strokeColor=#003300;strokeWidth=1;fillColor=none;" vertex="1" parent="1">
          <mxGeometry x="330" y="678.9455555555555" width="22.101851851851855" height="22.101851851851855" as="geometry" />
        </mxCell>
        <mxCell id="_npxwFRHUUskg1cep9gv-198" value="" style="group;strokeColor=default;rotation=90;strokeWidth=0;" vertex="1" connectable="0" parent="1">
          <mxGeometry x="345.43408360128615" y="683.4722222222222" width="37.041800643086816" height="13.055555555555555" as="geometry" />
        </mxCell>
        <mxCell id="_npxwFRHUUskg1cep9gv-199" value="" style="image;aspect=fixed;html=1;points=[];align=center;fontSize=12;image=img/lib/azure2/app_services/App_Services.svg;rotation=0;" vertex="1" parent="_npxwFRHUUskg1cep9gv-198">
          <mxGeometry x="-11.646427474260438" y="-2.889216466802674" width="3.3726851851851856" height="3.3726851851851856" as="geometry" />
        </mxCell>
        <mxCell id="_npxwFRHUUskg1cep9gv-200" value="" style="image;sketch=0;aspect=fixed;html=1;points=[];align=center;fontSize=12;image=img/lib/mscae/Application_Gateway.svg;rotation=0;" vertex="1" parent="_npxwFRHUUskg1cep9gv-198">
          <mxGeometry x="-12.175596054875964" y="3.413465525534492" width="3.6135912698412707" height="3.6135912698412707" as="geometry" />
        </mxCell>
        <mxCell id="_npxwFRHUUskg1cep9gv-201" value="" style="image;aspect=fixed;html=1;points=[];align=center;fontSize=12;image=img/lib/azure2/networking/Front_Doors.svg;rotation=0;" vertex="1" parent="_npxwFRHUUskg1cep9gv-198">
          <mxGeometry x="-12.70476463549149" y="10.166339088752881" width="4.220674603174603" height="3.723203538359789" as="geometry" />
        </mxCell>
        <mxCell id="_npxwFRHUUskg1cep9gv-202" value="" style="image;aspect=fixed;html=1;points=[];align=center;fontSize=12;image=img/lib/azure2/app_services/App_Service_Certificates.svg;rotation=0;" vertex="1" parent="_npxwFRHUUskg1cep9gv-198">
          <mxGeometry x="-1.8568087328732052" y="-2.739152609842265" width="3.4353207671957673" height="3.1317791005291014" as="geometry" />
        </mxCell>
        <mxCell id="_npxwFRHUUskg1cep9gv-203" value="" style="image;aspect=fixed;html=1;points=[];align=center;fontSize=12;image=img/lib/azure2/app_services/App_Service_Certificates.svg;rotation=0;" vertex="1" parent="_npxwFRHUUskg1cep9gv-198">
          <mxGeometry x="-1.8568087328732052" y="3.713593239455309" width="3.4353207671957673" height="3.1317791005291014" as="geometry" />
        </mxCell>
        <mxCell id="_npxwFRHUUskg1cep9gv-204" value="" style="image;aspect=fixed;html=1;points=[];align=center;fontSize=12;image=img/lib/azure2/app_services/App_Service_Certificates.svg;rotation=0;" vertex="1" parent="_npxwFRHUUskg1cep9gv-198">
          <mxGeometry x="-1.8568087328732052" y="10.466466802673699" width="3.4353207671957673" height="3.1317791005291014" as="geometry" />
        </mxCell>
        <mxCell id="_npxwFRHUUskg1cep9gv-188" value="" style="whiteSpace=wrap;html=1;aspect=fixed;strokeColor=#003300;strokeWidth=2;fillColor=none;" vertex="1" parent="1">
          <mxGeometry x="290" y="558.9455555555555" width="22.101851851851855" height="22.101851851851855" as="geometry" />
        </mxCell>
        <mxCell id="_npxwFRHUUskg1cep9gv-189" value="" style="group;strokeColor=default;rotation=90;strokeWidth=0;" vertex="1" connectable="0" parent="1">
          <mxGeometry x="305.43408360128615" y="563.4722222222222" width="37.041800643086816" height="13.055555555555555" as="geometry" />
        </mxCell>
        <mxCell id="_npxwFRHUUskg1cep9gv-190" value="" style="image;aspect=fixed;html=1;points=[];align=center;fontSize=12;image=img/lib/azure2/app_services/App_Services.svg;rotation=0;" vertex="1" parent="_npxwFRHUUskg1cep9gv-189">
          <mxGeometry x="-11.646427474260438" y="-2.889216466802674" width="3.3726851851851856" height="3.3726851851851856" as="geometry" />
        </mxCell>
        <mxCell id="_npxwFRHUUskg1cep9gv-191" value="" style="image;sketch=0;aspect=fixed;html=1;points=[];align=center;fontSize=12;image=img/lib/mscae/Application_Gateway.svg;rotation=0;" vertex="1" parent="_npxwFRHUUskg1cep9gv-189">
          <mxGeometry x="-12.175596054875964" y="3.413465525534492" width="3.6135912698412707" height="3.6135912698412707" as="geometry" />
        </mxCell>
        <mxCell id="_npxwFRHUUskg1cep9gv-192" value="" style="image;aspect=fixed;html=1;points=[];align=center;fontSize=12;image=img/lib/azure2/networking/Front_Doors.svg;rotation=0;" vertex="1" parent="_npxwFRHUUskg1cep9gv-189">
          <mxGeometry x="-12.70476463549149" y="10.166339088752881" width="4.220674603174603" height="3.723203538359789" as="geometry" />
        </mxCell>
        <mxCell id="_npxwFRHUUskg1cep9gv-193" value="" style="image;aspect=fixed;html=1;points=[];align=center;fontSize=12;image=img/lib/azure2/app_services/App_Service_Certificates.svg;rotation=0;" vertex="1" parent="_npxwFRHUUskg1cep9gv-189">
          <mxGeometry x="-1.8568087328732052" y="-2.739152609842265" width="3.4353207671957673" height="3.1317791005291014" as="geometry" />
        </mxCell>
        <mxCell id="_npxwFRHUUskg1cep9gv-194" value="" style="image;aspect=fixed;html=1;points=[];align=center;fontSize=12;image=img/lib/azure2/app_services/App_Service_Certificates.svg;rotation=0;" vertex="1" parent="_npxwFRHUUskg1cep9gv-189">
          <mxGeometry x="-1.8568087328732052" y="3.713593239455309" width="3.4353207671957673" height="3.1317791005291014" as="geometry" />
        </mxCell>
        <mxCell id="_npxwFRHUUskg1cep9gv-195" value="" style="image;aspect=fixed;html=1;points=[];align=center;fontSize=12;image=img/lib/azure2/app_services/App_Service_Certificates.svg;rotation=0;" vertex="1" parent="_npxwFRHUUskg1cep9gv-189">
          <mxGeometry x="-1.8568087328732052" y="10.466466802673699" width="3.4353207671957673" height="3.1317791005291014" as="geometry" />
        </mxCell>
        <mxCell id="_npxwFRHUUskg1cep9gv-234" value="" style="image;aspect=fixed;html=1;points=[];align=center;fontSize=12;image=img/lib/azure2/app_services/App_Service_Certificates.svg;" vertex="1" parent="1">
          <mxGeometry x="536.55" y="410" width="21.93" height="20" as="geometry" />
        </mxCell>
        <mxCell id="_npxwFRHUUskg1cep9gv-235" value="" style="image;aspect=fixed;html=1;points=[];align=center;fontSize=12;image=img/lib/azure2/app_services/App_Service_Certificates.svg;" vertex="1" parent="1">
          <mxGeometry x="248.06999999999994" y="410" width="21.93" height="20" as="geometry" />
        </mxCell>
        <mxCell id="_npxwFRHUUskg1cep9gv-236" value="" style="image;aspect=fixed;html=1;points=[];align=center;fontSize=12;image=img/lib/azure2/app_services/App_Service_Certificates.svg;" vertex="1" parent="1">
          <mxGeometry x="377.07" y="430" width="21.93" height="20" as="geometry" />
        </mxCell>
        <mxCell id="_npxwFRHUUskg1cep9gv-237" value="" style="image;aspect=fixed;html=1;points=[];align=center;fontSize=12;image=img/lib/azure2/app_services/App_Service_Certificates.svg;" vertex="1" parent="1">
          <mxGeometry x="475.43" y="620" width="21.93" height="20" as="geometry" />
        </mxCell>
        <mxCell id="_npxwFRHUUskg1cep9gv-243" value="" style="image;aspect=fixed;html=1;points=[];align=center;fontSize=12;image=img/lib/azure2/app_services/App_Service_Certificates.svg;" vertex="1" parent="1">
          <mxGeometry x="312.99" y="620" width="21.93" height="20" as="geometry" />
        </mxCell>
        <mxCell id="_npxwFRHUUskg1cep9gv-244" value="" style="image;aspect=fixed;html=1;points=[];align=center;fontSize=12;image=img/lib/azure2/app_services/App_Service_Certificates.svg;" vertex="1" parent="1">
          <mxGeometry x="291.05999999999995" y="505.05" width="21.93" height="20" as="geometry" />
        </mxCell>
        <mxCell id="_npxwFRHUUskg1cep9gv-245" value="" style="image;aspect=fixed;html=1;points=[];align=center;fontSize=12;image=img/lib/azure2/app_services/App_Service_Certificates.svg;" vertex="1" parent="1">
          <mxGeometry x="505.99999999999994" y="505.05" width="21.93" height="20" as="geometry" />
        </mxCell>
        <mxCell id="_npxwFRHUUskg1cep9gv-247" value="" style="group" vertex="1" connectable="0" parent="1">
          <mxGeometry x="550" y="110" width="80" height="82.77" as="geometry" />
        </mxCell>
        <mxCell id="_npxwFRHUUskg1cep9gv-246" value="" style="whiteSpace=wrap;html=1;aspect=fixed;rounded=1;container=1;" vertex="1" parent="_npxwFRHUUskg1cep9gv-247">
          <mxGeometry width="80" height="80" as="geometry" />
        </mxCell>
        <mxCell id="SQpLpG3qjown2OBQIWGg-5" value="" style="points=[[0.015,0.015,0],[0.25,0,0],[0.5,0,0],[0.75,0,0],[0.985,0.015,0],[1,0.22,0],[1,0.44,0],[1,0.67,0],[0.985,0.89,0],[0,0.22,0],[0,0.44,0],[0,0.67,0],[0.015,0.89,0],[0.25,0.91,0],[0.5,0.91,0],[0.785,0.955,0]];verticalLabelPosition=bottom;sketch=0;html=1;verticalAlign=top;aspect=fixed;align=center;pointerEvents=1;shape=mxgraph.cisco19.x509_certificate;fillColor=#005073;strokeColor=none;" parent="_npxwFRHUUskg1cep9gv-247" vertex="1">
          <mxGeometry x="47.6923076923077" y="8.13056076923077" width="19.433846153846154" height="18.461538461538463" as="geometry" />
        </mxCell>
        <mxCell id="SQpLpG3qjown2OBQIWGg-15" value="" style="dashed=0;outlineConnect=0;html=1;align=center;labelPosition=center;verticalLabelPosition=bottom;verticalAlign=top;shape=mxgraph.weblogos.json" parent="_npxwFRHUUskg1cep9gv-247" vertex="1">
          <mxGeometry x="5.230769230769232" y="27.05942307692307" width="27.07692307692308" height="28.651153846153843" as="geometry" />
        </mxCell>
        <mxCell id="_npxwFRHUUskg1cep9gv-3" value="" style="sketch=0;pointerEvents=1;shadow=0;dashed=0;html=1;strokeColor=none;fillColor=#505050;labelPosition=center;verticalLabelPosition=bottom;verticalAlign=top;outlineConnect=0;align=center;shape=mxgraph.office.concepts.file_key;" vertex="1" parent="_npxwFRHUUskg1cep9gv-247">
          <mxGeometry x="47.6923076923077" y="55.88248384615385" width="20.30769230769231" height="21.010846153846153" as="geometry" />
        </mxCell>
        <mxCell id="_npxwFRHUUskg1cep9gv-4" value="" style="sketch=0;outlineConnect=0;fontColor=#232F3E;gradientColor=none;fillColor=#DD344C;strokeColor=none;dashed=0;verticalLabelPosition=bottom;verticalAlign=top;align=center;html=1;fontSize=12;fontStyle=0;aspect=fixed;pointerEvents=1;shape=mxgraph.aws4.certificate_manager_2;" vertex="1" parent="_npxwFRHUUskg1cep9gv-247">
          <mxGeometry x="47.6923076923077" y="31.688176153846157" width="20.30769230769231" height="18.744615384615386" as="geometry" />
        </mxCell>
      </root>
    </mxGraphModel>
  </diagram>
</mxfile>
